<?xml version="1.0" standalone="no"?>
<!DOCTYPE svg PUBLIC "-//W3C//DTD SVG 20010904//EN"
 "http://www.w3.org/TR/2001/REC-SVG-20010904/DTD/svg10.dtd">
<svg version="1.0" xmlns="http://www.w3.org/2000/svg"
 width="2222.000000pt" height="2222.000000pt" viewBox="0 0 2222.000000 2222.000000"
 preserveAspectRatio="xMidYMid meet">
<metadata>
Created by potrace 1.14, written by Peter Selinger 2001-2017
</metadata>
<g transform="translate(0.000000,2222.000000) scale(0.100000,-0.100000)"
fill="#000000" stroke="none">
<path d="M15940 15520 c-19 -5 -55 -11 -80 -14 -25 -3 -56 -8 -70 -10 -14 -3
-108 -19 -210 -36 -102 -17 -196 -33 -210 -36 -14 -2 -68 -11 -120 -19 -147
-24 -148 -24 -265 -45 -60 -10 -130 -22 -155 -25 -25 -3 -52 -8 -60 -10 -8 -2
-33 -6 -55 -10 -22 -3 -51 -8 -65 -10 -67 -11 -699 -117 -725 -121 -16 -3 -43
-7 -60 -10 -16 -2 -41 -6 -55 -9 -14 -3 -41 -7 -60 -10 -59 -10 -81 -13 -210
-35 -69 -12 -138 -23 -155 -26 -32 -5 -88 -14 -120 -20 -19 -4 -420 -70 -475
-79 -14 -2 -38 -6 -55 -9 -16 -3 -221 -37 -455 -76 -234 -39 -436 -73 -450
-75 -14 -3 -36 -7 -50 -9 -14 -3 -41 -7 -60 -10 -19 -3 -247 -41 -506 -84
-548 -92 -549 -92 -649 -209 -33 -38 -67 -79 -75 -92 -8 -12 -59 -82 -114
-154 -54 -73 -108 -145 -120 -162 -44 -62 -129 -138 -184 -163 -49 -23 -70
-27 -152 -27 -52 0 -117 4 -145 8 -27 4 -113 14 -190 22 -136 15 -181 20 -255
30 -19 2 -60 7 -90 10 -30 4 -66 8 -80 10 -14 2 -54 6 -90 10 -70 8 -115 13
-170 19 -60 8 -133 17 -175 21 -101 11 -145 16 -215 25 -41 5 -97 12 -125 15
-27 3 -71 7 -96 10 -26 3 -64 7 -85 10 -43 4 -120 13 -174 20 -19 2 -62 7 -95
11 -33 3 -67 8 -75 9 -8 2 -46 6 -85 10 -38 4 -81 9 -95 11 -14 1 -54 6 -90 9
-36 3 -72 8 -80 10 -8 2 -46 7 -85 10 -38 3 -81 8 -95 10 -14 3 -47 7 -75 10
-27 3 -63 7 -80 10 -16 2 -57 7 -90 10 -33 3 -94 10 -135 15 -41 5 -97 12
-125 15 -104 11 -161 17 -185 20 -14 2 -50 6 -80 10 -30 3 -89 10 -130 15 -41
5 -102 12 -135 15 -75 8 -120 13 -165 20 -19 2 -60 7 -90 10 -51 5 -73 8 -170
20 -19 2 -57 7 -85 10 -58 6 -137 15 -180 20 -16 2 -62 7 -102 11 -71 6 -73 6
-103 -24 -56 -57 -65 -36 220 -497 21 -33 99 -161 175 -285 151 -246 161 -262
229 -367 25 -40 46 -74 46 -77 0 -2 50 -83 110 -181 61 -97 110 -178 110 -181
0 -2 18 -30 39 -62 21 -31 48 -73 59 -92 11 -19 38 -64 60 -100 23 -36 55 -87
72 -115 17 -27 35 -57 40 -65 5 -8 75 -123 156 -255 139 -227 199 -325 249
-405 12 -19 84 -136 160 -260 76 -124 210 -342 298 -485 88 -143 221 -359 295
-480 75 -121 155 -251 179 -290 140 -224 313 -508 313 -515 0 -4 7 -13 15 -20
8 -7 13 -15 11 -19 -4 -5 -154 -7 -177 -2 -3 0 -30 40 -59 89 -29 48 -81 132
-115 187 -34 55 -146 237 -249 405 -247 401 -333 540 -415 673 -21 34 -63 102
-92 150 -55 90 -140 228 -260 422 -37 61 -102 166 -144 235 -42 69 -114 184
-158 257 -45 73 -106 172 -136 220 -29 48 -70 115 -91 148 -21 33 -73 119
-117 190 -44 72 -135 220 -203 330 -68 110 -151 245 -185 300 -34 55 -106 172
-160 260 -53 88 -107 176 -120 195 -12 19 -44 71 -71 115 -27 44 -77 125 -111
180 -34 55 -93 152 -132 216 -38 64 -78 122 -87 130 -28 23 -91 17 -118 -11
-25 -26 -236 -366 -236 -380 0 -5 -3 -10 -7 -12 -10 -4 -73 -107 -73 -119 0
-5 -3 -9 -7 -9 -5 0 -13 -10 -19 -23 -9 -19 -517 -847 -563 -917 -8 -14 -20
-33 -26 -43 -18 -30 -576 -937 -662 -1075 -46 -73 -83 -135 -83 -138 0 -3 -5
-10 -10 -17 -19 -21 -470 -760 -470 -768 0 -5 -4 -9 -8 -9 -5 0 -17 -18 -27
-40 -10 -22 -22 -40 -27 -40 -4 0 -8 -4 -8 -9 0 -5 -92 -158 -205 -341 -113
-183 -205 -335 -205 -337 0 -2 -5 -9 -11 -16 -5 -7 -62 -97 -126 -202 -63
-104 -117 -192 -120 -195 -2 -3 -226 -5 -496 -5 -381 -1 -501 -4 -532 -14
-138 -46 -228 -143 -257 -276 -19 -86 -18 -2340 1 -2400 33 -102 105 -186 201
-233 l55 -27 9995 0 9995 0 57 28 c48 24 102 72 154 139 6 7 19 36 30 63 18
48 19 91 19 1245 l0 1195 -33 65 c-38 77 -62 105 -125 148 -93 65 -91 65 -539
66 l-408 1 -521 835 c-287 459 -564 902 -615 983 -52 82 -94 153 -94 158 0 5
-4 9 -10 9 -5 0 -10 6 -10 14 0 8 -3 16 -7 18 -5 2 -15 16 -23 31 -13 24 -801
1285 -1059 1695 -53 83 -103 164 -112 180 -9 15 -144 232 -301 482 -157 250
-417 667 -578 925 -162 259 -301 475 -309 480 -33 21 -65 24 -95 9 -24 -11
-55 -55 -136 -192 -57 -97 -187 -316 -289 -487 -102 -170 -190 -319 -195 -330
-6 -11 -78 -132 -160 -270 -82 -137 -238 -400 -347 -584 -110 -183 -199 -337
-199 -342 0 -5 -4 -9 -10 -9 -5 0 -10 -4 -10 -9 0 -6 -45 -85 -100 -176 -55
-92 -100 -169 -100 -170 0 -2 -22 -40 -50 -84 -27 -44 -50 -85 -50 -91 0 -5
-4 -10 -8 -10 -5 0 -16 -15 -25 -32 -20 -40 -57 -104 -78 -138 -9 -14 -96
-160 -194 -325 -98 -165 -211 -356 -253 -425 -41 -69 -85 -143 -97 -165 -13
-22 -91 -154 -174 -293 -83 -140 -151 -258 -151 -263 0 -5 -4 -9 -10 -9 -5 0
-10 -5 -10 -10 0 -6 -11 -29 -26 -51 -14 -22 -33 -55 -43 -72 -49 -86 -305
-515 -322 -539 -10 -15 -19 -29 -19 -31 0 -4 -238 -407 -362 -612 l-60 -100
-183 0 c-171 0 -182 1 -174 17 5 10 64 108 129 219 66 111 120 205 120 210 0
5 5 9 10 9 6 0 10 5 10 10 0 6 11 27 24 48 13 20 126 210 251 422 126 212 274
462 330 555 89 149 134 225 170 287 5 10 80 135 165 278 85 143 162 273 171
288 9 15 59 99 111 187 239 402 297 500 386 650 52 88 167 282 255 430 88 149
176 297 197 330 20 33 41 69 48 80 6 11 50 85 97 163 47 79 85 146 85 148 0 3
9 17 19 32 10 15 85 140 166 277 81 138 160 270 175 295 15 25 107 180 205
345 98 165 200 336 226 380 62 102 71 133 52 172 -23 49 -71 62 -153 43z m691
-1441 c15 -20 61 -94 267 -434 47 -77 102 -167 122 -200 62 -99 311 -508 330
-540 9 -17 60 -100 112 -185 142 -231 263 -431 284 -467 11 -17 54 -89 97
-160 44 -70 125 -203 180 -295 56 -91 163 -266 237 -388 74 -121 142 -233 151
-248 9 -15 71 -116 138 -225 66 -109 121 -200 121 -203 0 -3 5 -10 10 -17 12
-13 142 -225 153 -248 4 -8 15 -26 25 -41 9 -15 68 -112 131 -215 63 -104 130
-213 148 -243 90 -145 193 -316 193 -320 0 -3 -40 -5 -89 -5 l-90 -1 -228 374
c-125 206 -235 386 -243 401 -8 14 -61 100 -116 191 -177 289 -856 1404 -874
1435 -10 17 -41 68 -69 114 -29 46 -61 97 -71 115 -10 17 -62 103 -115 191
-54 88 -166 272 -249 408 -83 136 -159 260 -168 275 -9 15 -23 38 -31 52 -8
14 -83 138 -167 275 -84 138 -160 264 -169 280 -24 43 -79 68 -118 55 -42 -15
-157 -190 -157 -240 0 -26 24 -76 94 -195 96 -164 113 -194 166 -286 16 -30
90 -157 163 -284 74 -126 143 -246 153 -265 11 -19 35 -60 54 -91 19 -31 34
-60 34 -65 0 -4 6 -15 14 -23 7 -9 25 -36 38 -61 14 -25 35 -61 46 -80 12 -19
30 -51 41 -70 10 -19 94 -165 186 -325 93 -159 176 -303 185 -320 9 -16 50
-86 90 -155 123 -213 332 -573 352 -608 37 -66 166 -288 197 -340 17 -29 31
-55 31 -57 0 -4 41 -74 90 -155 5 -8 29 -51 54 -94 l46 -80 0 -185 0 -186
-2307 1 c-1270 1 -2309 2 -2310 3 -2 0 17 33 42 71 25 39 45 72 45 74 0 2 27
46 60 97 33 52 63 101 67 109 4 8 18 33 32 55 23 38 194 318 230 377 9 15 68
112 131 215 63 104 116 194 118 201 2 6 8 12 13 12 5 0 9 4 9 9 0 4 61 109
136 232 75 123 168 276 207 339 38 63 93 153 122 200 162 264 215 353 215 361
0 5 5 9 10 9 6 0 10 4 10 10 0 5 12 26 26 47 14 21 30 47 35 58 5 11 22 40 38
65 16 25 47 74 68 110 39 65 73 119 469 768 115 188 218 357 229 376 11 18 49
81 85 140 36 59 72 119 81 134 143 238 215 351 236 371 22 19 34 22 67 18 25
-4 46 -14 57 -28z m-11470 -846 c7 -7 590 -973 648 -1074 14 -25 143 -240 286
-477 143 -237 265 -439 270 -449 35 -62 333 -557 361 -600 19 -28 34 -53 34
-56 0 -2 124 -210 275 -462 151 -251 275 -460 275 -464 0 -3 -830 -6 -1845 -6
l-1845 0 0 184 0 184 81 136 c88 148 90 151 135 225 17 28 34 58 37 66 4 8 25
44 47 79 22 34 40 67 40 72 0 5 4 9 9 9 5 0 11 6 13 13 2 11 277 473 340 574
10 16 21 35 25 43 4 8 22 38 40 67 18 29 33 56 33 62 0 5 4 11 8 13 5 2 15 15
23 30 8 15 57 99 109 185 52 87 100 167 106 178 6 11 64 108 129 215 65 107
126 209 136 227 10 17 29 50 43 72 15 22 26 45 26 51 0 5 4 10 9 10 5 0 11 8
15 18 3 9 11 26 18 37 19 28 61 97 74 120 6 11 34 59 62 106 58 98 59 112 11
195 -24 42 -36 53 -67 61 -47 12 -74 3 -100 -34 -38 -54 -422 -685 -422 -694
0 -5 -3 -9 -8 -9 -4 0 -12 -9 -17 -20 -10 -20 -108 -182 -285 -470 -46 -74
-89 -146 -97 -160 -8 -14 -40 -66 -71 -117 -31 -51 -87 -141 -123 -200 -699
-1145 -922 -1509 -930 -1518 -9 -9 -190 -15 -185 -5 30 56 2149 3580 2158
3587 26 22 96 19 119 -4z m-2940 -4517 c228 -44 376 -195 424 -431 16 -78 22
-274 11 -325 -3 -14 -11 -50 -17 -80 -32 -157 -147 -309 -289 -385 -115 -60
-169 -67 -490 -69 -157 -1 -298 1 -315 4 -38 7 -75 60 -69 98 8 42 28 66 72
86 68 31 67 26 66 469 -1 376 -2 398 -20 418 -10 12 -34 28 -52 36 -40 17 -72
66 -66 102 7 38 31 70 57 75 45 10 67 11 336 14 212 2 294 0 352 -12z m8448
-10 c12 -11 21 -22 21 -26 0 -4 8 -25 17 -46 9 -22 18 -43 19 -49 5 -22 326
-902 337 -923 6 -13 33 -35 58 -48 73 -37 94 -80 68 -137 -21 -47 -43 -51
-291 -51 l-230 0 -30 33 c-25 28 -29 40 -25 69 7 40 27 66 66 82 55 22 66 87
22 130 l-28 29 -171 0 -171 0 -30 -28 c-18 -17 -31 -39 -31 -54 0 -26 34 -77
53 -77 6 0 24 -12 39 -27 48 -46 31 -130 -30 -150 -42 -13 -423 -9 -449 6 -41
21 -59 81 -38 121 7 14 39 38 71 55 l59 30 113 305 c62 168 122 328 132 355
25 65 61 161 95 255 61 166 62 167 224 166 92 -1 112 -4 130 -20z m4194 -57
c20 -24 19 -19 21 -123 2 -72 4 -80 30 -102 15 -13 37 -25 49 -25 12 -1 42 -2
67 -3 76 -3 107 -31 111 -97 5 -71 -32 -101 -129 -105 -68 -3 -108 -21 -121
-56 -4 -12 -7 -116 -6 -232 1 -176 4 -216 18 -243 21 -40 69 -51 139 -33 82
21 133 -16 126 -90 -2 -27 -11 -40 -43 -60 -65 -42 -125 -61 -212 -67 -169
-12 -251 46 -293 206 -7 26 -13 144 -15 280 -1 130 -3 239 -4 243 -3 17 -47
48 -67 48 -116 0 -136 160 -24 190 22 6 52 21 67 34 24 21 27 30 28 97 3 94 9
113 46 139 16 12 29 19 29 17 0 -3 24 1 53 7 61 14 104 6 130 -25z m4956 -3
c7 -9 14 -50 15 -98 5 -129 19 -146 130 -152 83 -4 102 -14 122 -62 17 -41 2
-98 -33 -121 -16 -10 -50 -18 -90 -19 -74 -3 -106 -20 -120 -61 -11 -34 -10
-394 1 -442 5 -19 15 -41 22 -49 21 -20 78 -26 129 -13 25 6 55 9 68 6 51 -14
77 -96 42 -134 -22 -25 -114 -68 -171 -81 -156 -35 -286 9 -333 113 -38 85
-43 131 -43 377 0 107 -4 209 -9 226 -10 32 -35 50 -79 58 -58 10 -80 35 -82
93 -1 47 26 81 75 94 79 20 94 43 95 148 0 103 15 121 118 142 83 17 112 12
143 -25z m-16194 -226 c16 -6 25 -17 26 -32 1 -37 -3 -170 -6 -208 -1 -19 -3
-43 -4 -52 -2 -28 -44 -67 -77 -71 -42 -6 -91 25 -99 63 -9 39 -42 80 -66 80
-25 0 -86 -32 -122 -64 l-28 -24 -1 -226 c0 -208 1 -228 18 -247 23 -26 43
-37 78 -43 85 -15 117 -103 54 -149 -25 -19 -43 -20 -255 -22 -125 0 -240 3
-256 6 -84 23 -87 122 -5 160 89 40 83 17 86 314 3 305 2 311 -73 339 -108 42
-91 165 24 172 235 15 300 -2 301 -77 0 -37 9 -41 34 -15 25 27 126 99 126 90
0 -4 6 -1 14 5 34 28 158 29 231 1z m687 15 c81 -8 177 -54 212 -100 55 -71
59 -98 65 -395 7 -306 11 -324 72 -337 54 -11 85 -75 59 -124 -21 -38 -57 -46
-214 -45 l-150 1 -6 25 c-3 14 -18 31 -32 38 -24 11 -32 9 -85 -23 -89 -53
-143 -68 -232 -63 -84 5 -144 29 -192 79 -41 42 -60 92 -66 175 -17 221 114
323 430 337 79 4 92 7 114 29 44 45 31 149 -23 185 -53 34 -234 21 -255 -19
-6 -11 -12 -29 -14 -41 -5 -26 -40 -56 -66 -58 -10 -1 -26 -2 -34 -3 -8 0 -29
8 -45 19 -30 20 -34 34 -43 147 -7 87 27 126 124 143 19 3 54 11 79 16 25 6
72 13 105 16 33 3 61 6 62 7 3 3 70 -2 135 -9z m1097 1 c35 -4 80 -14 99 -22
26 -11 70 -14 161 -13 70 1 136 -1 149 -5 24 -8 52 -53 48 -77 -7 -43 -32 -65
-86 -75 -42 -9 -52 -23 -45 -68 19 -112 9 -200 -31 -278 -62 -122 -200 -188
-391 -189 -101 0 -114 -7 -107 -59 8 -51 30 -57 190 -58 202 -2 295 -23 365
-86 91 -80 110 -239 42 -355 -57 -98 -177 -166 -328 -187 -139 -19 -327 -7
-433 27 -119 38 -177 97 -189 194 -11 95 22 158 119 223 44 30 49 37 36 46 -9
6 -26 18 -37 26 -35 24 -46 84 -25 139 9 25 24 56 32 68 27 43 20 97 -22 157
-51 74 -67 126 -68 211 0 185 82 301 257 360 42 14 179 35 195 29 3 -1 34 -5
69 -8z m1130 0 c134 -11 230 -75 266 -178 16 -45 20 -95 24 -329 7 -304 5
-299 72 -326 69 -27 90 -93 44 -138 -13 -14 -30 -25 -37 -26 -56 -5 -107 -7
-197 -9 l-104 -3 -18 35 c-22 43 -53 53 -88 29 -14 -10 -53 -31 -86 -47 -50
-24 -74 -29 -144 -31 -190 -4 -295 98 -293 287 2 179 117 278 342 295 41 3 99
8 129 10 58 5 85 22 98 63 18 54 -7 130 -50 154 -30 16 -131 19 -190 5 -46
-10 -50 -14 -72 -64 -20 -45 -29 -54 -57 -60 -49 -11 -56 -10 -88 12 -32 22
-39 43 -44 141 -3 72 5 97 37 118 31 21 181 54 277 62 41 4 77 8 78 10 2 1 9
1 15 -1 7 -2 45 -6 86 -9z m2418 -6 c136 -24 211 -95 238 -225 5 -22 10 -148
10 -280 1 -132 5 -252 10 -267 5 -20 21 -34 60 -53 60 -28 81 -65 64 -113 -18
-53 -36 -57 -262 -62 -54 -1 -99 -1 -100 1 -2 2 -7 17 -12 33 -12 36 -60 54
-85 32 -8 -8 -44 -28 -79 -46 -149 -77 -346 -37 -408 84 -57 110 -46 275 23
352 40 44 128 88 201 100 15 2 42 6 59 9 17 3 60 6 95 6 86 0 126 14 144 49
30 58 9 144 -42 171 -35 19 -178 17 -217 -2 -18 -8 -34 -27 -40 -46 -22 -66
-82 -95 -138 -67 -39 20 -50 47 -55 136 -6 111 7 131 106 157 175 45 301 55
428 31z m3150 -26 c135 -64 212 -243 207 -476 -6 -257 -119 -439 -305 -493
-80 -22 -90 -24 -184 -26 -76 -2 -87 -4 -117 -29 -30 -25 -33 -33 -35 -88 -1
-51 2 -64 22 -86 13 -14 44 -30 69 -37 53 -13 75 -35 81 -79 3 -26 -2 -39 -25
-61 l-28 -29 -239 0 c-208 0 -242 2 -263 17 -32 22 -40 33 -40 60 0 43 22 72
67 89 79 31 76 8 77 526 1 283 -3 473 -9 492 -7 23 -24 38 -65 59 -64 33 -70
40 -70 89 0 69 33 85 180 88 63 1 135 3 159 4 40 2 45 0 55 -26 16 -43 39 -44
121 -4 40 20 92 40 116 44 61 11 164 -5 226 -34z m903 32 c170 -12 257 -78
291 -223 7 -28 12 -151 13 -298 2 -171 6 -257 14 -272 6 -12 32 -29 56 -38 73
-28 92 -97 41 -145 -25 -23 -37 -25 -248 -31 -91 -3 -106 3 -107 42 0 9 -12
21 -26 28 -24 10 -33 8 -84 -22 -90 -54 -150 -70 -239 -65 -163 10 -251 102
-254 268 -3 101 16 160 66 211 72 73 179 106 357 111 85 2 110 10 130 41 19
31 21 96 4 130 -26 50 -68 67 -154 63 -102 -5 -127 -17 -149 -69 -24 -55 -41
-68 -91 -69 -32 0 -48 6 -68 25 -22 23 -25 35 -30 120 -4 92 -4 94 23 119 30
28 162 63 281 74 38 4 71 8 72 10 2 1 9 1 15 -1 7 -2 46 -6 87 -9z m1323 -8
c26 -5 51 -17 56 -27 7 -15 7 -73 -3 -229 -3 -51 -8 -69 -28 -88 -50 -51 -129
-32 -149 37 -15 48 -43 79 -72 79 -13 0 -43 -13 -68 -29 -86 -58 -79 -32 -79
-283 0 -262 1 -265 93 -292 30 -9 61 -24 70 -34 37 -40 16 -116 -35 -130 -15
-4 -132 -7 -258 -6 -273 1 -287 5 -295 89 -3 29 28 64 69 80 76 29 76 29 76
327 0 296 1 294 -72 321 -64 25 -90 76 -63 127 23 44 36 47 206 50 143 3 170
-11 183 -90 3 -14 5 -26 5 -27 1 -1 16 12 34 28 54 50 126 92 180 104 53 12
68 11 150 -7z m3332 11 c220 -12 359 -179 359 -432 0 -144 18 -135 -294 -140
-167 -2 -262 -7 -276 -15 -78 -42 -10 -181 104 -213 61 -17 166 -6 266 29 69
24 89 27 107 18 24 -12 77 -91 78 -116 1 -16 -90 -77 -149 -100 -19 -7 -39
-17 -45 -20 -39 -28 -225 -49 -315 -37 -242 35 -376 199 -384 472 -8 260 113
463 315 530 43 15 167 34 179 29 3 -1 28 -3 55 -5z m3155 -19 c120 -22 129
-34 127 -162 -2 -111 -15 -134 -80 -145 -31 -5 -40 -1 -67 25 -16 17 -30 39
-30 50 0 31 -22 42 -102 48 -58 5 -81 3 -105 -10 -45 -23 -62 -50 -54 -89 9
-43 50 -69 169 -107 90 -30 133 -46 190 -73 30 -14 90 -75 110 -112 26 -46 23
-177 -5 -237 -40 -88 -148 -166 -253 -184 -14 -2 -35 -7 -48 -9 -27 -7 -208
-7 -237 -1 -11 2 -42 7 -70 10 -81 11 -112 24 -123 54 -14 36 -9 201 7 230 13
24 48 42 82 42 31 0 79 -53 79 -88 0 -38 13 -43 121 -48 132 -5 189 20 189 86
0 50 -38 75 -200 132 -114 41 -168 69 -212 112 -62 60 -73 89 -73 191 0 113
26 171 100 227 106 80 260 99 485 58z m-12868 -10 c73 -34 125 -107 144 -200
4 -19 7 -154 8 -299 l2 -263 32 -29 c18 -16 39 -29 46 -29 23 0 53 -52 50 -84
-2 -16 -14 -41 -28 -54 -24 -25 -27 -25 -212 -26 -197 -1 -233 5 -254 44 -25
47 -16 79 38 129 l50 46 0 215 c1 223 -5 272 -36 308 -54 62 -173 46 -257 -35
l-30 -29 0 -231 c1 -249 1 -250 56 -278 51 -27 58 -104 13 -146 -23 -21 -32
-22 -211 -23 -104 -1 -201 2 -218 6 -38 10 -65 42 -65 78 0 36 25 65 80 93 25
12 50 33 56 46 8 16 12 104 12 270 0 287 -2 294 -78 328 -50 22 -70 49 -70 93
0 31 42 70 79 75 59 7 235 7 262 0 28 -7 59 -51 59 -83 0 -21 16 -38 22 -24 4
10 98 67 145 88 108 47 223 53 305 14z m8218 -15 c93 -57 131 -57 235 -5 73
37 95 44 163 48 97 5 164 -14 215 -62 80 -75 90 -124 92 -447 1 -295 2 -302
68 -335 42 -22 56 -42 57 -79 0 -39 -22 -70 -57 -82 -45 -14 -368 -9 -397 7
-53 28 -58 112 -8 150 65 48 61 29 59 299 -3 269 -7 290 -59 312 -55 23 -153
-3 -223 -59 l-29 -23 -1 -217 c0 -119 3 -230 7 -247 5 -16 24 -43 43 -60 47
-40 59 -83 35 -123 -10 -16 -31 -34 -47 -39 -15 -5 -102 -8 -191 -7 -161 1
-164 2 -189 27 -45 44 -35 117 20 146 44 23 48 48 47 293 -1 248 -7 283 -54
307 -52 28 -149 3 -236 -61 l-24 -17 1 -243 c1 -242 1 -242 25 -261 71 -54 84
-83 63 -134 -23 -53 -31 -56 -223 -57 -97 -1 -193 2 -212 6 -44 9 -70 40 -70
83 0 37 19 61 65 81 74 33 70 17 73 299 2 139 -1 268 -5 287 -7 26 -19 38 -53
55 -81 41 -103 96 -57 147 25 30 54 35 203 37 133 1 153 -10 169 -97 2 -10 4
-21 4 -22 1 -2 22 12 49 31 112 82 186 108 294 103 79 -3 91 -7 148 -41z
m2860 15 c78 -40 129 -113 145 -209 4 -23 7 -152 7 -287 1 -159 5 -251 12
-266 6 -12 27 -33 46 -46 19 -12 43 -29 53 -37 25 -21 22 -78 -6 -111 l-24
-27 -202 0 c-201 -1 -202 -1 -226 24 -13 13 -26 35 -28 49 -4 27 10 80 22 80
4 0 22 13 41 29 l35 29 1 218 c0 121 -3 234 -7 253 -4 19 -21 48 -38 65 -44
44 -105 45 -183 4 -97 -51 -93 -40 -95 -282 -2 -241 4 -274 47 -298 42 -24 62
-73 46 -113 -22 -54 -49 -60 -270 -59 l-199 1 -24 27 c-47 55 -25 110 59 149
62 28 65 41 63 329 -1 254 -1 258 -24 282 -13 13 -35 27 -49 31 -69 17 -98
100 -50 145 12 11 24 21 27 21 13 3 102 8 189 9 112 3 141 -12 157 -78 l10
-41 25 19 c14 11 30 20 37 20 6 0 13 4 15 8 6 14 144 75 193 85 51 11 152 -1
195 -23z"/>
<path d="M16083 11993 c-298 -158 -523 -455 -598 -790 -38 -169 -36 -217 11
-248 22 -14 63 -16 330 -16 276 0 307 2 329 18 13 10 27 27 31 38 4 10 7 236
7 502 0 356 -3 486 -12 497 -21 25 -49 24 -98 -1z"/>
<path d="M16399 12002 l-22 -19 0 -481 c0 -355 3 -488 12 -510 21 -51 39 -54
365 -53 331 1 338 2 354 64 14 53 -29 276 -73 372 -7 17 -25 56 -39 87 -98
216 -340 460 -538 542 -34 14 -38 14 -59 -2z"/>
<path d="M15512 10749 c-9 -4 -26 -17 -37 -29 -19 -21 -20 -36 -20 -336 l0
-314 28 -27 27 -28 298 0 c163 -1 310 3 325 8 58 19 59 28 59 360 1 319 -2
335 -45 359 -24 12 -602 19 -635 7z"/>
<path d="M16428 10741 c-16 -8 -34 -23 -40 -34 -16 -30 -15 -615 1 -645 24
-45 47 -48 362 -48 326 1 341 4 358 60 5 17 9 165 8 328 l-2 298 -27 26 -27
27 -302 1 c-240 1 -308 -2 -331 -13z"/>
<path d="M5154 11406 c-150 -101 -303 -309 -366 -496 -43 -127 -62 -241 -47
-286 16 -51 41 -55 282 -52 213 3 216 3 236 27 12 13 22 33 22 45 6 112 3 737
-4 756 -17 51 -54 53 -123 6z"/>
<path d="M5487 11422 c-15 -17 -17 -60 -17 -406 l0 -388 29 -29 29 -29 219 0
c156 1 223 4 234 13 29 23 41 57 35 105 -37 288 -185 546 -408 710 -62 46 -96
52 -121 24z"/>
<path d="M4780 10372 c-46 -22 -50 -45 -50 -303 l0 -239 277 2 277 3 1 230 c0
127 -3 243 -8 258 -18 56 -39 61 -265 62 -150 0 -213 -4 -232 -13z"/>
<path d="M5528 10377 c-12 -4 -29 -17 -40 -29 -16 -19 -18 -42 -18 -270 l0
-248 277 2 277 3 1 225 c0 124 -3 240 -8 258 -15 61 -36 66 -264 67 -112 0
-214 -3 -225 -8z"/>
<path d="M1952 8495 c-18 -8 -37 -26 -42 -40 -6 -16 -10 -172 -10 -385 l0
-360 28 -30 c25 -29 31 -31 100 -31 99 0 168 21 216 68 74 72 106 176 107 353
2 218 -40 341 -135 400 -43 26 -62 30 -156 36 -51 2 -85 -1 -108 -11z"/>
<path d="M10464 8185 c-33 -14 -65 -74 -66 -126 -2 -54 49 -97 110 -92 6 0 20
1 30 2 32 2 63 38 69 78 6 46 -28 129 -57 138 -39 13 -57 13 -86 0z"/>
<path d="M4107 7835 c-58 -15 -86 -40 -96 -86 -15 -64 18 -117 80 -132 60 -15
199 58 216 112 30 91 -66 141 -200 106z"/>
<path d="M5233 8230 c-43 -26 -65 -73 -66 -139 -1 -77 9 -122 36 -152 67 -78
218 -55 253 39 6 17 11 63 10 104 -2 121 -46 168 -155 168 -28 0 -59 -8 -78
-20z"/>
<path d="M5160 7352 c-32 -31 -40 -47 -40 -75 0 -91 50 -117 225 -117 100 0
136 5 179 25 71 34 81 139 18 181 -22 15 -55 19 -184 22 l-158 4 -40 -40z"/>
<path d="M6345 7834 c-53 -13 -94 -50 -96 -87 -4 -71 8 -98 52 -120 57 -27
153 2 219 66 39 38 42 93 6 126 -30 28 -107 34 -181 15z"/>
<path d="M8737 7837 c-60 -10 -93 -30 -105 -66 -12 -34 -7 -98 10 -119 21 -24
72 -41 109 -36 76 12 179 90 179 135 0 37 -29 77 -62 87 -38 11 -63 11 -131
-1z"/>
<path d="M11765 8206 c-28 -16 -43 -28 -70 -56 l-25 -25 0 -222 c0 -216 1
-223 23 -248 18 -22 34 -27 84 -32 175 -16 248 74 248 302 -1 211 -61 301
-197 294 -24 -2 -53 -7 -63 -13z"/>
<path d="M12848 7839 c-63 -10 -106 -41 -114 -84 -21 -113 73 -174 184 -119
104 52 137 104 106 166 -21 40 -77 52 -176 37z"/>
<path d="M17512 8203 c-39 -19 -82 -71 -82 -100 0 -11 11 -30 25 -43 24 -22
34 -24 126 -24 90 1 102 3 124 24 29 27 31 49 10 91 -33 64 -130 88 -203 52z"/>
</g>
</svg>
