<svg width="737" height="839" viewBox="0 0 737 839" fill="none" xmlns="http://www.w3.org/2000/svg">
<path d="M0 4.00001C0 1.79087 1.79086 0 4 0H732C734.209 0 736 1.79086 736 4V835C736 837.209 734.209 839 732 839H4.00002C1.79088 839 0 837.209 0 835V4.00001Z" fill="#A5E9FF"/>
<path d="M173.757 0.312072C174.247 0.106094 174.774 0 175.306 0H732.5C734.709 0 736.5 1.79086 736.5 4V226.964C736.5 229.828 733.579 231.764 730.941 230.648L723.5 227.5L712.866 221.216C712.623 221.073 712.365 220.955 712.096 220.865L691.902 214.134C691.635 214.045 691.359 213.984 691.079 213.953L679.306 212.645C678.458 212.551 677.662 212.188 677.034 211.609L672.443 207.371C671.83 206.804 671.055 206.444 670.226 206.341L660.919 205.177C660.001 205.063 659.152 204.634 658.515 203.963L652.9 198.053C651.323 196.393 648.677 196.393 647.1 198.053L640.875 204.605C640.626 204.867 640.343 205.094 640.033 205.28L629.767 211.44C628.658 212.105 627.94 213.265 627.838 214.555L626.616 230.029C626.541 230.979 626.13 231.87 625.457 232.543L615.386 242.614C614.809 243.191 614.423 243.93 614.278 244.734L610 268.5L601.5 296L597.557 318.178C597.519 318.392 597.464 318.603 597.391 318.809L588.681 343.487C588.561 343.827 588.487 344.183 588.463 344.543L586.552 372.246C586.518 372.744 586.39 373.232 586.176 373.683L577.793 391.382C577.599 391.791 577.476 392.23 577.429 392.68L575.077 415.26C575.026 415.749 574.885 416.225 574.662 416.663L564.363 436.848C563.342 438.85 560.871 439.618 558.895 438.547L556.902 437.468C554.128 435.965 550.787 438.116 551.007 441.263L551.912 454.234C551.969 455.058 551.77 455.879 551.342 456.585L542.181 471.702C542.06 471.9 541.923 472.088 541.77 472.263L533.17 482.091C532.151 483.256 530.55 483.729 529.061 483.303L526.472 482.563C523.091 481.597 520.198 485.151 521.83 488.265L527.386 498.874C528.072 500.182 527.98 501.763 527.148 502.983L521.848 510.756C521.398 511.416 520.47 511.533 519.871 511.004C518.71 509.979 517.032 511.432 517.88 512.728L520.837 517.25C520.945 517.416 521.029 517.596 521.086 517.786L527 537.5L531.367 550.116C531.455 550.371 531.518 550.635 531.553 550.903L533.885 568.623C533.961 569.201 533.909 569.788 533.735 570.344L528.655 586.508C528.552 586.835 528.408 587.147 528.225 587.437L520.169 600.254C518.802 602.428 515.77 602.77 513.954 600.954L510.748 597.748C509.677 596.677 508.092 596.303 506.655 596.782L501.362 598.546C499.668 599.111 497.805 598.484 496.796 597.01L494.232 593.262C492.995 591.454 490.534 590.977 488.712 592.192L483.42 595.72C483.141 595.906 482.84 596.056 482.523 596.167L474.296 599.047C473.456 599.34 472.738 599.906 472.256 600.653L468.189 606.956C466.264 609.941 461.694 609.123 460.923 605.656L460.331 602.99C460.118 602.031 460.266 601.026 460.746 600.168L465.521 591.642C466.396 590.079 468.203 589.289 469.944 589.707L476.817 591.356C478.358 591.726 479.936 590.909 480.525 589.438C481.091 588.022 480.576 586.402 479.295 585.573L473.943 582.11C473.326 581.711 472.831 581.15 472.512 580.487L466.896 568.822C466.635 568.281 466.5 567.688 466.5 567.087V561.676C466.5 558.94 463.756 557.056 461.202 558.038C460.421 558.338 459.565 558.379 458.759 558.155L454.37 556.936C452.44 556.4 451.204 554.519 451.478 552.535L452.768 543.182C452.916 542.107 452.621 541.018 451.951 540.165L448.008 535.146C447.673 534.72 447.428 534.23 447.288 533.706L444.337 522.639C443.479 519.422 438.977 519.255 437.883 522.399C437.635 523.113 437.633 523.888 437.877 524.602L443.492 541.015C443.819 541.97 443.772 543.012 443.363 543.934L438.021 555.953C437.07 558.092 438.636 560.5 440.975 560.5C442.459 560.5 443.752 561.51 444.112 562.949L444.318 563.77C444.727 565.408 446.12 566.612 447.8 566.78L457.121 567.712C458.839 567.884 460.253 569.139 460.628 570.825L462.7 580.149C462.894 581.024 462.789 581.939 462.401 582.748L457.57 592.812C457.2 593.584 456.592 594.216 455.836 594.616L450.471 597.456C449.246 598.105 448.444 599.342 448.352 600.725L447.74 609.9C447.622 611.677 445.804 612.821 444.15 612.16C441.881 611.252 439.714 613.667 440.86 615.825L444.394 622.477C445.319 624.217 444.838 626.371 443.262 627.554L441.46 628.905C440.533 629.601 439.953 630.664 439.87 631.82L439.49 637.14C439.294 639.886 435.997 641.173 433.992 639.286C432.315 637.708 429.575 638.314 428.719 640.452L427.268 644.079C426.786 645.284 426.919 646.648 427.624 647.737L430.456 652.114C431.381 653.543 431.3 655.4 430.255 656.743L425.72 662.574C425.25 663.179 424.616 663.636 423.894 663.89L417.122 666.281C416.71 666.426 416.325 666.638 415.982 666.907L412.29 669.808C410.698 671.059 408.422 670.922 406.991 669.491L403.285 665.785C401.026 663.526 397.161 664.696 396.534 667.829L396.44 668.299C396.167 669.666 396.625 671.077 397.649 672.023L401.699 675.76C402.214 676.236 402.889 676.5 403.59 676.5C405.947 676.5 407.242 679.242 405.743 681.062L404.065 683.1C403.105 684.265 402.883 685.872 403.491 687.253L407.306 695.924C407.749 696.93 407.758 698.074 407.332 699.087L404.953 704.737C404.368 706.125 403.054 707.068 401.551 707.175L400.489 707.251C398.491 707.394 396.907 708.992 396.782 710.991L396.077 722.271C396.027 723.072 396.219 723.869 396.628 724.56L403.748 736.575C403.915 736.857 404.047 737.159 404.141 737.474L409.188 754.451C409.392 755.138 409.408 755.867 409.235 756.561L408.757 758.47C408.312 760.251 406.712 761.5 404.877 761.5H378.213C377.742 761.5 377.273 761.416 376.831 761.253L370.1 758.774C368.795 758.293 367.834 757.169 367.561 755.805L366.423 750.113C366.159 748.794 365.25 747.696 364.003 747.19L348.417 740.872C347.815 740.628 347.162 740.534 346.516 740.598L332.774 741.973C330.355 742.214 329.041 744.921 330.345 746.971C330.768 747.635 331.415 748.123 332.169 748.347L347.358 752.863C348.689 753.259 349.72 754.317 350.081 755.658L352.812 765.801C352.936 766.263 352.977 766.744 352.931 767.22L352.08 776.158C352.027 776.713 352.091 777.273 352.267 777.802L355.056 786.169C355.344 787.031 355.329 787.964 355.015 788.817L352.665 795.196C352.245 796.336 351.329 797.224 350.176 797.608L349.845 797.718C348.408 798.197 346.823 797.823 345.752 796.752L344.783 795.783C344.271 795.271 343.907 794.629 343.731 793.925L341.071 783.282C341.024 783.094 340.99 782.903 340.971 782.71L338.86 761.602C338.656 759.557 336.935 758 334.88 758H318.833C317.968 758 317.126 757.719 316.433 757.2L313.036 754.652C312.096 753.947 311.637 752.768 311.854 751.613L312.142 750.075C312.494 748.197 310.545 746.727 308.836 747.582C307.434 748.283 305.756 747.415 305.518 745.866L305.178 743.66C305.071 742.963 304.54 742.408 303.849 742.27C303.065 742.113 302.5 741.424 302.5 740.624V739.748C302.5 738.23 303.73 737 305.248 737H306.098C306.996 737 307.857 736.643 308.491 736.009L308.784 735.716C310.174 734.326 309.909 732.006 308.243 730.964C307.757 730.661 307.196 730.5 306.624 730.5H300.757C298.958 730.5 297.5 729.042 297.5 727.243V727.081C297.5 726.093 297.994 725.171 298.816 724.623L299.575 724.117C300.133 723.745 300.404 723.069 300.259 722.415C299.959 721.066 298.219 720.685 297.383 721.785L291.439 729.606C290.605 730.705 289.106 731.053 287.873 730.436C286.341 729.671 285.817 727.743 286.75 726.307L290.854 719.994C291.276 719.345 291.5 718.588 291.5 717.814V715.571C291.5 714.561 291.118 713.589 290.431 712.849L286.187 708.278C285.43 707.463 284.368 707 283.256 707H275.805C274.458 707 273.292 706.065 273 704.75C272.708 703.435 271.542 702.5 270.195 702.5H265.759C264.366 702.5 263.535 700.947 264.308 699.788C264.922 698.867 264.533 697.613 263.504 697.202L262.273 696.709C261.202 696.281 260.5 695.244 260.5 694.091V692.2C260.5 689.944 262.436 688.176 264.682 688.38C265.536 688.458 266.339 688.819 266.964 689.407L274.5 696.5L278.948 699.735C279.632 700.232 280.455 700.5 281.301 700.5H282.211C283.887 700.5 285.385 699.455 285.964 697.883L287.769 692.985C288.226 691.743 289.268 690.808 290.552 690.487L293.923 689.644C294.305 689.549 294.672 689.397 295.01 689.194L297.558 687.665C298.763 686.942 299.5 685.64 299.5 684.235V682.171C299.5 681.108 299.045 680.096 298.251 679.39C296.543 677.872 293.884 678.237 292.648 680.159L291.03 682.676C290.682 683.217 290.208 683.667 289.65 683.986L284.868 686.719C283.989 687.221 282.952 687.371 281.967 687.139L276.181 685.778C275.411 685.597 274.712 685.191 274.172 684.613L268.683 678.732C268.235 678.251 267.911 677.668 267.742 677.033L266.39 671.964C266.139 671.021 266.241 670.018 266.678 669.145L267.479 667.542C267.819 666.861 268.346 666.292 268.999 665.901L270.887 664.768C272.183 663.99 272.93 662.549 272.818 661.042L272.1 651.35C272.035 650.474 271.684 649.644 271.101 648.988L269.087 646.723C268.39 645.939 268.029 644.913 268.082 643.866L268.442 636.669C268.48 635.906 268.299 635.148 267.92 634.484L264.878 629.162C264.628 628.725 264.298 628.338 263.904 628.023L257.686 623.049C257.234 622.687 256.866 622.232 256.607 621.714L252.128 612.755C251.721 611.943 251.604 611.016 251.794 610.128L252.544 606.628C252.828 605.301 252.421 603.921 251.461 602.961L245.337 596.837C245.113 596.613 244.917 596.364 244.752 596.094L240.47 589.087C239.855 588.081 239.715 586.855 240.088 585.736L241.164 582.508C241.384 581.847 241.428 581.141 241.292 580.458L241.055 579.275C240.722 577.612 239.377 576.34 237.698 576.1L237.281 576.04C237.094 576.013 236.905 576 236.716 576H225.32C223.395 576 221.743 574.629 221.388 572.737L220.747 569.315C220.587 568.462 220.153 567.683 219.512 567.098L209.769 558.202C209.265 557.742 208.887 557.16 208.671 556.513L207.861 554.083C207.347 552.54 205.903 551.5 204.277 551.5C202.191 551.5 200.5 549.809 200.5 547.723V547.599C200.5 546.293 201.173 545.08 202.28 544.387L202.392 544.318C203.66 543.525 204.306 542.029 204.012 540.562C203.707 539.034 202.453 537.877 200.905 537.695L190.033 536.416C188.018 536.179 186.5 534.471 186.5 532.443V523.076C186.5 521.507 185.583 520.083 184.155 519.434L182.757 518.799C181.647 518.294 180.828 517.311 180.532 516.127L179.881 513.525C179.647 512.586 179.949 511.596 180.668 510.949C182.259 509.517 181.548 506.885 179.453 506.449L175.684 505.663C173.829 505.277 172.5 503.642 172.5 501.747V500.883C172.5 499.161 171.398 497.633 169.765 497.088L157.123 492.874C156.39 492.63 155.602 492.603 154.854 492.797L145.661 495.18C143.854 495.649 141.98 494.701 141.287 492.968C140.799 491.748 140.993 490.362 141.796 489.323L148.236 480.988C148.734 480.345 149.023 479.565 149.066 478.753L149.864 463.59C149.947 462.014 149.096 460.537 147.691 459.819L131.222 451.393C129.615 450.571 128.758 448.774 129.13 447.008L129.923 443.24C130.27 441.595 131.607 440.342 133.272 440.104L133.588 440.059C135.756 439.749 137.272 437.753 136.989 435.582L136.548 432.205C136.251 429.923 137.935 427.862 140.23 427.698L156.551 426.532C156.85 426.511 157.149 426.523 157.445 426.568L175.473 429.342C176.147 429.446 176.835 429.375 177.474 429.138L193.326 423.25C193.772 423.085 194.243 423 194.719 423H207.922C208.917 423 209.598 421.995 209.228 421.07C209.083 420.707 208.792 420.42 208.427 420.28L203.705 418.464C202.922 418.162 202.063 418.115 201.251 418.329L193.5 420.368C193.168 420.456 192.826 420.5 192.482 420.5H186.444C185.823 420.5 185.211 420.645 184.655 420.922L177.715 424.392C176.927 424.786 176.031 424.909 175.166 424.742L146.414 419.177C145.813 419.061 145.193 419.084 144.602 419.245L127.932 423.791C125.589 424.43 123.223 422.852 122.912 420.444L121.813 411.924C121.621 410.436 122.277 408.965 123.514 408.116L125.922 406.46C127.849 405.135 128.233 402.447 126.755 400.635L116.285 387.801C114.987 386.21 115.104 383.896 116.556 382.444L120.328 378.672C121.079 377.921 121.5 376.904 121.5 375.843V375.272C121.5 373.605 120.466 372.112 118.904 371.527L111.318 368.682C110.17 368.251 109.283 367.318 108.911 366.149L107.09 360.426C106.47 358.478 107.419 356.375 109.291 355.552L114.18 353.401C116.075 352.567 116.33 349.981 114.633 348.793C113.923 348.296 113.5 347.484 113.5 346.617V338.629C113.5 338.212 113.565 337.798 113.693 337.401L118.127 323.657C118.37 322.903 118.384 322.093 118.166 321.331L117.104 317.613C116.728 316.297 117.051 314.88 117.96 313.857L118.18 313.61C119.509 312.115 119.529 309.868 118.228 308.349L115.664 305.358C114.923 304.494 114.586 303.355 114.736 302.227L114.901 300.991C115.218 298.613 113.368 296.5 110.969 296.5H108.849C106.328 296.5 104.951 293.559 106.565 291.622C107.155 290.915 107.383 289.973 107.183 289.074L105.808 282.886C105.609 281.99 105.724 281.051 106.135 280.23L107.547 277.406C108.394 275.713 110.312 274.845 112.142 275.327L112.746 275.486C115.49 276.208 118.089 273.914 117.714 271.102C117.577 270.074 117.045 269.141 116.232 268.499L107.83 261.866C105.211 259.798 106.98 255.594 110.289 256.021C112.257 256.275 114 254.743 114 252.759V248.859C114 247.149 115.087 245.628 116.705 245.075L130.024 240.518C131.599 239.979 132.338 238.176 131.593 236.687C131.218 235.937 130.522 235.399 129.702 235.226L80.8866 224.926C78.549 224.432 77.1622 222.013 77.9177 219.747L80.5616 211.815C80.8456 210.963 80.8346 210.041 80.5304 209.196L77.5879 201.022C76.9524 199.257 77.6292 197.287 79.2154 196.285L82.1215 194.45C84.1723 193.154 84.6076 190.346 83.0451 188.491L79.444 184.215C78.547 183.15 78.2685 181.694 78.7089 180.373L80.3056 175.583C80.7381 174.286 80.4778 172.857 79.6154 171.796L75.6729 166.944C74.9292 166.028 74.6274 164.831 74.848 163.673L76.1533 156.82C76.3732 155.666 76.0742 154.473 75.3357 153.558L66 142L60.4428 135.401C59.0732 133.774 59.2154 131.361 60.7667 129.906L64.9988 125.939C65.6477 125.33 66.0753 124.523 66.2141 123.644L67.2408 117.142C67.4067 116.091 67.1471 115.017 66.5193 114.158L58.9807 103.842C58.3529 102.983 58.0933 101.909 58.2592 100.858L59.3001 94.2662C59.4301 93.4427 59.2996 92.5991 58.9267 91.8535L55.9223 85.8446C55.6446 85.2892 55.5 84.6767 55.5 84.0557V76.5498C55.5 75.5527 55.1276 74.5916 54.4558 73.8548L43.4672 61.8027C41.7091 59.8745 42.2382 56.8063 44.5407 55.5783L45.026 55.3195C46.5111 54.5274 47.3415 52.8905 47.1035 51.2243L46.8565 49.4955C46.6387 47.9706 47.3158 46.4561 48.5975 45.6017L55.1931 41.2046C56.32 40.4533 57.7505 40.3233 58.9944 40.8591L89.0631 53.8118C89.3533 53.9368 89.6278 54.0958 89.8806 54.2854L107.06 67.1702C109.244 68.8083 112.392 67.8252 113.255 65.2351L114.028 62.9156C114.332 62.0026 114.297 61.0105 113.929 60.1212L109.198 48.6861C108.755 47.6151 108.798 46.4046 109.316 45.3679L112.052 39.8959C113.263 37.4736 111.768 34.5731 109.092 34.155L101.186 32.9196C99.5646 32.6663 98.2627 31.4489 97.9013 29.8486L96.2974 22.7455C95.6751 19.9899 98.0281 17.475 100.819 17.9128L117.221 20.4856C119.122 20.7839 120.966 19.6855 121.61 17.8715L124.827 8.80448C125.498 6.91335 127.467 5.8121 129.43 6.2297L148.274 10.2392C149.072 10.409 149.903 10.3307 150.656 10.0147L173.757 0.312072Z" fill="#14B8A6"/>
<path d="M333.718 748.764C331.951 746.317 331 743.376 331 740.357V740C331 732.268 337.268 726 345 726C352.732 726 359 732.268 359 740V740.357C359 743.376 358.049 746.317 356.282 748.764L352.5 754L346.509 764.139C346.193 764.673 345.62 765 345 765C344.38 765 343.807 764.673 343.491 764.139L337.5 754L333.718 748.764Z" fill="#07333D"/>
<path d="M364.125 752.281L366.516 751.312V736.281L364.125 735.312V732.594L371.484 732.438H374.516C376.943 732.438 378.844 733.036 380.219 734.234C381.604 735.432 382.297 737.073 382.297 739.156C382.297 741.802 381.51 743.797 379.938 745.141C378.375 746.484 376.12 747.156 373.172 747.156H371.484V751.312L373.875 752.281V755H364.125V752.281ZM373.172 743.422C374.516 743.422 375.547 743.115 376.266 742.5C376.984 741.875 377.344 740.974 377.344 739.797C377.344 738.734 377.057 737.885 376.484 737.25C375.922 736.604 375.109 736.281 374.047 736.281H371.484V743.422H373.172Z" fill="#07333D"/>
<path d="M391.062 739.922C391.062 739.88 391.312 739.635 391.812 739.188C392.312 738.74 392.891 738.333 393.547 737.969C394.214 737.594 394.87 737.406 395.516 737.406C396.026 737.406 396.505 737.448 396.953 737.531C397.401 737.615 397.75 737.703 398 737.797C398.26 737.891 398.422 737.948 398.484 737.969L398.234 744.125H395.359L394.875 741.406C394.323 741.406 393.786 741.542 393.266 741.812C392.755 742.073 392.318 742.365 391.953 742.688C391.599 743 391.422 743.167 391.422 743.188V751.641L394.625 752.438V755H384.062V752.438L386.625 751.641V741.234L384.062 740.438V737.875L390.781 737.719L391.062 739.922Z" fill="#07333D"/>
<path d="M404.766 747.422C404.849 748.703 405.234 749.703 405.922 750.422C406.62 751.13 407.526 751.484 408.641 751.484C409.432 751.484 410.224 751.375 411.016 751.156C411.818 750.927 412.479 750.698 413 750.469C413.531 750.229 413.87 750.062 414.016 749.969L415.391 752.625C415.391 752.667 415.016 752.932 414.266 753.422C413.526 753.901 412.615 754.339 411.531 754.734C410.458 755.12 409.312 755.312 408.094 755.312C405.385 755.312 403.323 754.562 401.906 753.062C400.49 751.562 399.781 749.438 399.781 746.688C399.781 744.833 400.12 743.208 400.797 741.812C401.484 740.406 402.469 739.323 403.75 738.562C405.031 737.792 406.552 737.406 408.312 737.406C410.656 737.406 412.453 738.078 413.703 739.422C414.953 740.766 415.578 742.599 415.578 744.922C415.578 745.432 415.552 745.927 415.5 746.406C415.448 746.885 415.411 747.188 415.391 747.312L404.766 747.422ZM408 741.234C407.125 741.234 406.411 741.531 405.859 742.125C405.307 742.708 404.964 743.479 404.828 744.438H410.625C410.625 743.479 410.411 742.708 409.984 742.125C409.557 741.531 408.896 741.234 408 741.234Z" fill="#07333D"/>
<path d="M447.688 755H439.016V752.438L440.719 751.641V744.031C440.719 743.135 440.573 742.474 440.281 742.047C440 741.62 439.526 741.406 438.859 741.406C438.245 741.406 437.672 741.531 437.141 741.781C436.62 742.021 436.182 742.286 435.828 742.578C435.484 742.859 435.312 743.021 435.312 743.062V751.641L436.969 752.438V755H428.844V752.438L430.516 751.641V744.031C430.516 743.115 430.375 742.448 430.094 742.031C429.812 741.615 429.344 741.406 428.688 741.406C428.073 741.406 427.495 741.531 426.953 741.781C426.422 742.021 425.979 742.292 425.625 742.594C425.281 742.885 425.109 743.042 425.109 743.062V751.641L426.797 752.438V755H417.844V752.438L420.297 751.641V741.234L417.875 740.438V737.875L424.562 737.719L424.781 739.984C424.781 739.943 425.089 739.693 425.703 739.234C426.328 738.776 427.057 738.359 427.891 737.984C428.724 737.599 429.552 737.406 430.375 737.406C432.531 737.406 434.005 738.323 434.797 740.156C435.391 739.562 436.198 738.958 437.219 738.344C438.25 737.719 439.375 737.406 440.594 737.406C442.24 737.406 443.469 737.906 444.281 738.906C445.104 739.906 445.516 741.323 445.516 743.156V751.641L447.688 752.438V755Z" fill="#07333D"/>
<path d="M459.953 752.922C459.953 752.964 459.677 753.198 459.125 753.625C458.573 754.052 457.911 754.443 457.141 754.797C456.37 755.141 455.578 755.312 454.766 755.312C453.203 755.312 451.979 754.88 451.094 754.016C450.219 753.141 449.781 751.901 449.781 750.297C449.781 748.464 450.438 747.125 451.75 746.281C453.062 745.438 454.974 745.016 457.484 745.016H459.734V743.25C459.734 741.688 458.911 740.911 457.266 740.922C456.776 740.922 456.323 740.958 455.906 741.031C455.49 741.104 455.156 741.182 454.906 741.266C454.667 741.339 454.516 741.385 454.453 741.406L453.969 743.422H451.094L450.875 738.688C451.062 738.625 451.521 738.49 452.25 738.281C452.99 738.073 453.87 737.875 454.891 737.688C455.922 737.5 456.896 737.406 457.812 737.406C459.458 737.406 460.766 737.615 461.734 738.031C462.703 738.438 463.411 739.104 463.859 740.031C464.307 740.948 464.531 742.182 464.531 743.734V751.641L466.938 752.219V754.781L460.531 755L459.953 752.922ZM454.422 749.812C454.422 750.438 454.583 750.917 454.906 751.25C455.24 751.573 455.708 751.734 456.312 751.734C456.823 751.734 457.328 751.599 457.828 751.328C458.328 751.047 458.75 750.76 459.094 750.469C459.438 750.167 459.651 749.969 459.734 749.875V747.734H457.906C456.667 747.734 455.776 747.901 455.234 748.234C454.693 748.568 454.422 749.094 454.422 749.812Z" fill="#07333D"/>
<path d="M475.844 739.922C475.844 739.88 476.177 739.641 476.844 739.203C477.521 738.766 478.292 738.37 479.156 738.016C480.021 737.651 480.88 737.469 481.734 737.469C483.266 737.469 484.458 737.974 485.312 738.984C486.167 739.995 486.594 741.385 486.594 743.156V751.641L488.844 752.438V755H480.031V752.438L481.797 751.641V744.031C481.797 743.281 481.599 742.667 481.203 742.188C480.807 741.708 480.281 741.469 479.625 741.469C479.031 741.469 478.479 741.604 477.969 741.875C477.469 742.135 477.047 742.427 476.703 742.75C476.37 743.062 476.203 743.24 476.203 743.281V751.641L477.953 752.438V755H468.844V752.438L471.406 751.641V741.234L468.844 740.438V737.875L475.625 737.719L475.844 739.922Z" fill="#07333D"/>
<path d="M497.812 755.312C496.083 755.312 494.859 754.776 494.141 753.703C493.432 752.63 493.078 751.089 493.078 749.078V741.719H490.109V738.609L493.078 738.203V733.781L497.875 732.922V738.203H502.359V741.719H497.875V748.766C497.875 749.828 497.99 750.573 498.219 751C498.458 751.427 498.911 751.641 499.578 751.641C499.964 751.641 500.411 751.557 500.922 751.391C501.432 751.214 501.828 751.052 502.109 750.906L503.25 753.344C501.458 754.667 499.646 755.323 497.812 755.312Z" fill="#07333D"/>
<path d="M504.047 737.875L511.406 737.719V748.766C511.406 749.661 511.552 750.312 511.844 750.719C512.146 751.115 512.651 751.312 513.359 751.312C513.974 751.312 514.547 751.188 515.078 750.938C515.609 750.677 516.057 750.401 516.422 750.109C516.786 749.807 516.969 749.635 516.969 749.594V741.234L514.406 740.438V737.875L521.766 737.719V751.641L524.328 752.281V754.781L517.578 755L517.266 752.766C517.266 752.807 516.969 753.052 516.375 753.5C515.792 753.948 515.083 754.365 514.25 754.75C513.417 755.125 512.552 755.312 511.656 755.312C510.052 755.312 508.807 754.807 507.922 753.797C507.047 752.786 506.609 751.385 506.609 749.594V741.234L504.047 740.438V737.875Z" fill="#07333D"/>
<path d="M533.094 739.922C533.094 739.88 533.344 739.635 533.844 739.188C534.344 738.74 534.922 738.333 535.578 737.969C536.245 737.594 536.901 737.406 537.547 737.406C538.057 737.406 538.536 737.448 538.984 737.531C539.432 737.615 539.781 737.703 540.031 737.797C540.292 737.891 540.453 737.948 540.516 737.969L540.266 744.125H537.391L536.906 741.406C536.354 741.406 535.818 741.542 535.297 741.812C534.786 742.073 534.349 742.365 533.984 742.688C533.63 743 533.453 743.167 533.453 743.188V751.641L536.656 752.438V755H526.094V752.438L528.656 751.641V741.234L526.094 740.438V737.875L532.812 737.719L533.094 739.922Z" fill="#07333D"/>
<path d="M552.141 752.922C552.141 752.964 551.865 753.198 551.312 753.625C550.76 754.052 550.099 754.443 549.328 754.797C548.557 755.141 547.766 755.312 546.953 755.312C545.391 755.312 544.167 754.88 543.281 754.016C542.406 753.141 541.969 751.901 541.969 750.297C541.969 748.464 542.625 747.125 543.938 746.281C545.25 745.438 547.161 745.016 549.672 745.016H551.922V743.25C551.922 741.688 551.099 740.911 549.453 740.922C548.964 740.922 548.51 740.958 548.094 741.031C547.677 741.104 547.344 741.182 547.094 741.266C546.854 741.339 546.703 741.385 546.641 741.406L546.156 743.422H543.281L543.062 738.688C543.25 738.625 543.708 738.49 544.438 738.281C545.177 738.073 546.057 737.875 547.078 737.688C548.109 737.5 549.083 737.406 550 737.406C551.646 737.406 552.953 737.615 553.922 738.031C554.891 738.438 555.599 739.104 556.047 740.031C556.495 740.948 556.719 742.182 556.719 743.734V751.641L559.125 752.219V754.781L552.719 755L552.141 752.922ZM546.609 749.812C546.609 750.438 546.771 750.917 547.094 751.25C547.427 751.573 547.896 751.734 548.5 751.734C549.01 751.734 549.516 751.599 550.016 751.328C550.516 751.047 550.938 750.76 551.281 750.469C551.625 750.167 551.839 749.969 551.922 749.875V747.734H550.094C548.854 747.734 547.964 747.901 547.422 748.234C546.88 748.568 546.609 749.094 546.609 749.812Z" fill="#07333D"/>
<path d="M227.064 640.03C227.646 639.39 228.518 639.097 229.368 639.257L234.521 640.223C235.475 640.401 236.33 640.92 236.929 641.683L240.575 646.322C241.171 647.082 242.023 647.6 242.971 647.78L248.917 648.913C250.706 649.253 252 650.818 252 652.639V653.833C252 654.82 252.654 655.687 253.603 655.958L253.788 656.011C254.763 656.289 255.374 657.256 255.207 658.256C255.081 659.016 254.528 659.635 253.788 659.846L252.361 660.254C251.794 660.416 251.27 660.701 250.826 661.09L248.501 663.124C247.851 663.693 247.035 664.036 246.174 664.102L243.648 664.296C242.043 664.42 240.669 665.493 240.16 667.02L239.544 668.868C239.204 669.889 238.381 670.677 237.346 670.973C236.206 671.298 234.98 670.98 234.143 670.143L231.906 667.906C231.317 667.317 230.926 666.558 230.789 665.736L230.307 662.843C230.112 661.675 230.445 660.481 231.216 659.582L232.431 658.164C232.806 657.726 233.082 657.213 233.24 656.659L233.537 655.62C233.833 654.584 233.699 653.472 233.164 652.537L232.693 651.713C232.244 650.927 232.075 650.013 232.212 649.12L232.488 647.326C232.753 645.609 231.374 644.081 229.639 644.168L229.033 644.198C226.811 644.309 225.567 641.676 227.064 640.03Z" fill="#14B8A6"/>
<path fill-rule="evenodd" clip-rule="evenodd" d="M616.695 426.111C616.565 426.369 616.408 426.613 616.226 426.838L609.147 435.583C608.418 436.483 608.116 437.655 608.317 438.795L610.67 452.132C610.879 453.314 611.608 454.34 612.655 454.927L621.564 459.916C622.768 460.59 623.54 461.838 623.606 463.216L623.943 470.296C623.98 471.081 624.248 471.838 624.713 472.472L628.868 478.138C629.282 478.703 629.541 479.366 629.618 480.062L630.76 490.337C630.91 491.686 631.733 492.866 632.946 493.473L637.155 495.578C637.711 495.855 638.323 496 638.944 496H643.128C644.017 496 644.881 496.296 645.583 496.843L647.917 498.657C648.619 499.204 649.483 499.5 650.372 499.5H654.181C655.872 499.5 657.38 500.563 657.948 502.155L658.911 504.851C659.279 505.881 660.138 506.659 661.199 506.925C662.572 507.268 663.568 508.455 663.669 509.866L663.954 513.858C663.984 514.283 664.083 514.701 664.245 515.096L670.2 529.558C670.701 530.774 670.572 532.158 669.855 533.261L665.012 540.712C664.675 541.23 664.463 541.82 664.392 542.434L663.088 553.733C663.03 554.24 663.069 554.753 663.203 555.244L664.221 558.975C664.404 559.647 664.759 560.259 665.251 560.751L671.74 567.24C672.542 568.042 673.647 568.466 674.779 568.406L679.415 568.162C681.232 568.067 682.885 569.21 683.437 570.944L685.882 578.628C685.96 578.875 686.063 579.115 686.188 579.342L691.262 588.568C691.42 588.855 691.542 589.16 691.626 589.477L693.895 598.099C693.965 598.366 694.062 598.624 694.185 598.87L695.394 601.289C696.072 602.644 697.457 603.5 698.972 603.5H701.739C702.56 603.5 703.361 603.752 704.033 604.223L705.491 605.244C706.894 606.226 707.275 608.139 706.356 609.584C705.355 611.157 703.226 611.545 701.735 610.426L699.567 608.8C698.874 608.281 698.032 608 697.167 608H693.717C692.338 608 691.056 608.71 690.325 609.88L687.537 614.34C686.883 615.387 686.749 616.678 687.174 617.837L691.817 630.5C691.938 630.832 692.104 631.146 692.308 631.435L699.114 641.044C699.967 642.248 700.088 643.824 699.428 645.144L698.059 647.882C697.695 648.61 697.562 649.431 697.677 650.237L698.066 652.965C698.322 654.756 697.345 656.495 695.682 657.208L695.295 657.374C695.099 657.458 694.896 657.526 694.689 657.578L688.435 659.141C687.509 659.373 686.531 659.265 685.677 658.838L680.964 656.482C679.741 655.87 678.29 655.926 677.117 656.63L674.397 658.262C672.724 659.266 670.571 658.916 669.302 657.435L662.5 649.5L658.155 645.155C657.724 644.724 657.397 644.2 657.2 643.624L651.695 627.569C651.566 627.192 651.381 626.836 651.146 626.514L641.629 613.427C640.482 611.85 638.233 611.586 636.752 612.856C636.261 613.276 635.903 613.83 635.721 614.45L633.949 620.475C633.66 621.454 633.009 622.287 632.127 622.801L629.484 624.342C628.256 625.059 627.5 626.375 627.5 627.797V638.964C627.5 639.643 627.673 640.312 628.003 640.906L629.497 643.594C629.827 644.188 630 644.857 630 645.536V651.727C630 652.555 630.257 653.363 630.736 654.039L637.873 664.115C638.284 664.694 638.532 665.373 638.594 666.081L639.411 675.48C639.47 676.149 639.695 676.793 640.068 677.352L641.828 679.992C642.266 680.649 642.5 681.421 642.5 682.211V687.551C642.5 688.099 642.104 688.566 641.564 688.656C640.682 688.803 640.319 689.874 640.931 690.527L646.182 696.128C646.716 696.697 647.071 697.409 647.205 698.178L648.855 707.666C648.951 708.216 648.93 708.78 648.795 709.321L646.743 717.53C646.583 718.167 646.583 718.833 646.743 719.47L648.782 727.627C648.926 728.202 648.94 728.801 648.824 729.382L647.482 736.089C647.186 737.568 647.747 739.087 648.933 740.019L653.25 743.411C653.743 743.798 654.138 744.296 654.403 744.864L656.923 750.263C657.283 751.035 658.008 751.573 658.851 751.693C660.087 751.87 661.265 751.116 661.624 749.921L661.661 749.798C662.112 748.295 663.755 747.502 665.212 748.085L668.462 749.385C669.447 749.779 670.235 750.548 670.653 751.523L674.011 759.358C674.329 760.102 674.415 760.925 674.256 761.718L671.686 774.568C671.564 775.181 671.587 775.814 671.753 776.416L675.5 790L677.854 798.475C677.951 798.823 678 799.183 678 799.545V807.036C678 807.344 678.036 807.652 678.106 807.952L679.78 815.065C679.925 815.68 680.213 816.251 680.62 816.733L684.994 821.902C685.315 822.281 685.786 822.5 686.283 822.5C687.01 822.5 687.655 822.035 687.885 821.346L688.135 820.594C688.775 818.674 691.184 818.054 692.671 819.427L694.609 821.216C695.489 822.029 695.959 823.194 695.889 824.39L695.548 830.18C695.516 830.721 695.375 831.25 695.133 831.734L694.394 833.211C693.065 835.871 694.999 839 697.972 839H731.992C734.204 839 735.996 837.204 735.992 834.992L735.508 585.826C735.504 583.79 733.408 582.43 731.546 583.257C731.186 583.417 730.796 583.5 730.402 583.5H725.772C724.105 583.5 722.612 582.466 722.027 580.904L721.662 579.931C721.554 579.645 721.414 579.371 721.245 579.117L720.419 577.879C719.831 576.996 718.916 576.383 717.875 576.175L717.716 576.143C715.846 575.769 714.5 574.127 714.5 572.221V571.333C714.5 570.468 714.219 569.626 713.7 568.933L712.142 566.855C711.721 566.295 711.161 565.855 710.517 565.579L709.686 565.223C708.616 564.764 707.798 563.861 707.448 562.751L705.164 555.519C705.055 555.175 704.9 554.846 704.703 554.544L698.691 545.294C698.564 545.099 698.454 544.892 698.363 544.677L691.767 529.13C691.59 528.713 691.486 528.269 691.457 527.817L691.037 521.096C691.013 520.701 690.929 520.312 690.79 519.941L688 512.5L684 504L681.135 498.68C680.723 497.914 680.572 497.035 680.704 496.175L681.28 492.428C681.422 491.505 681.237 490.562 680.757 489.761L679.352 487.421C678.807 486.511 678.645 485.422 678.902 484.393L679.266 482.934C679.417 482.331 679.347 481.695 679.069 481.139L678.942 480.885C678.663 480.326 678.142 479.928 677.53 479.806C676.629 479.626 675.962 478.86 675.908 477.942L675.573 472.234C675.53 471.507 675.002 470.9 674.288 470.758C673.539 470.608 673 469.95 673 469.187V464.261C673 463.44 672.748 462.639 672.277 461.967L670.127 458.896C669.717 458.31 669.471 457.623 669.416 456.909L669.038 451.991C669.013 451.665 668.948 451.343 668.844 451.033L667.679 447.538C667.56 447.181 667.492 446.809 667.477 446.433L667.015 434.879C667.005 434.627 667.019 434.375 667.056 434.125L668.274 426.005C668.42 425.036 668.916 424.153 669.669 423.526L670.857 422.536C671.281 422.182 671.627 421.745 671.874 421.252L673.497 418.007C673.826 417.348 674.33 416.794 674.954 416.404L676.12 415.675C677.29 414.944 678 413.662 678 412.283V407.108C678 406.383 677.803 405.672 677.43 405.05L675.375 401.625C675.127 401.212 674.956 400.757 674.87 400.283L674.329 397.312C674.12 396.162 673.419 395.161 672.409 394.572L668.447 392.261C668.15 392.088 667.877 391.877 667.634 391.634L663.459 387.459C663.155 387.155 662.804 386.902 662.419 386.71L660.419 385.709C659.507 385.254 658.457 385.163 657.481 385.456L654.562 386.331C654.189 386.443 653.802 386.5 653.413 386.5H652.709C650.834 386.5 649.211 385.198 648.804 383.368L648.57 382.314C648.523 382.106 648.452 381.903 648.356 381.712C647.642 380.283 645.825 379.823 644.516 380.739L642.799 381.941C642.274 382.308 641.669 382.544 641.034 382.629L637.666 383.078C635.814 383.325 634.38 384.82 634.211 386.681L634.184 386.977C634.068 388.248 633.353 389.388 632.258 390.045L630.747 390.952C629.65 391.61 628.933 392.755 628.821 394.03L627.618 407.658C627.542 408.529 627.182 409.35 626.594 409.997L622.871 414.092C622.625 414.363 622.417 414.666 622.253 414.994L616.695 426.111ZM686.779 692.663C685.966 691.924 684.874 691.57 683.782 691.691C682.125 691.875 680.778 693.11 680.451 694.745L679.785 698.076C679.601 698.996 679.746 699.951 680.196 700.775L682.012 704.105C682.332 704.692 682.5 705.351 682.5 706.02V712.843C682.5 713.904 682.921 714.921 683.672 715.672L686.832 718.832C687.271 719.271 687.602 719.807 687.799 720.396L688.882 723.647C688.961 723.882 689.06 724.109 689.181 724.325L690.448 726.607C691.104 727.788 692.312 728.558 693.66 728.654L696.099 728.828C697.576 728.934 698.991 728.215 699.776 726.959L700.392 725.973C700.789 725.337 701 724.603 701 723.853V717.147C701 716.397 700.789 715.663 700.392 715.027L698.5 712L696.236 708.83C696.079 708.611 695.945 708.376 695.835 708.13L694 704L691.342 697.355C691.117 696.792 690.767 696.288 690.319 695.881L686.779 692.663Z" fill="#14B8A6"/>
<path d="M628.605 790.185C628.862 789.413 629.349 788.738 630 788.25L630.059 788.206C630.672 787.746 631.13 787.111 631.372 786.384L631.415 786.255C631.781 785.157 632.666 784.31 633.779 783.992C634.86 783.683 635.727 782.874 636.112 781.818L637.113 779.065C637.345 778.426 637.953 778 638.634 778C639.175 778 639.68 778.27 639.981 778.721L640.545 779.568C641.148 780.471 641.299 781.603 640.956 782.633L639.824 786.028C639.611 786.666 639.563 787.347 639.683 788.008L640.125 790.438C640.36 791.729 639.946 793.054 639.018 793.982L636.251 796.749C635.759 797.241 635.404 797.853 635.221 798.525L634.171 802.374C634.058 802.789 633.878 803.182 633.64 803.54L631.51 806.735C631.185 807.223 630.672 807.555 630.093 807.651C628.937 807.844 627.844 807.063 627.651 805.907L627.148 802.889C627.051 802.304 627.085 801.704 627.248 801.133L627.686 799.599C627.891 798.881 627.891 798.119 627.686 797.401L627.34 796.19C627.119 795.415 627.136 794.591 627.391 793.826L628.605 790.185Z" fill="#14B8A6"/>
</svg>
