<svg width="1027" height="443" viewBox="0 0 1027 443" fill="none" xmlns="http://www.w3.org/2000/svg">
<path d="M209.002 60.7933C210.807 57.8601 215.07 57.8601 216.875 60.7933L360.859 294.767H323.879L216.902 116.473C215.107 113.48 210.77 113.48 208.975 116.473L101.998 294.767H65.0175L209.002 60.7933Z" fill="url(#paint0_linear_78_2917)"/>
<path d="M208.885 134.989C210.713 131.998 215.075 132.05 216.831 135.085L218.703 138.321C219.543 139.774 219.53 141.568 218.669 143.008L139.633 275.182C139.204 275.899 138.978 276.719 138.978 277.554V294.767H111.243L208.885 134.989Z" fill="url(#paint1_linear_78_2917)"/>
<path d="M790.153 5.35938C788.318 2.42354 784.026 2.47245 782.259 5.44934L610.476 294.767H647.456L782.185 73.6745C783.986 70.7184 788.278 70.7184 790.08 73.6745L924.808 294.767H971.033L790.153 5.35938Z" fill="url(#paint2_linear_78_2917)"/>
<path d="M790.001 88.4868C788.219 85.5596 783.983 85.521 782.148 88.4153L777.314 96.0409C776.393 97.494 776.355 99.3386 777.215 100.828L877.963 275.204C878.369 275.907 878.583 276.705 878.583 277.517V294.767H915.563L790.001 88.4868Z" fill="url(#paint3_linear_78_2917)"/>
<path d="M227.172 62.5016C225.149 59.2156 227.805 55.0446 231.638 55.4869L452.012 80.9146C458.541 81.668 464.979 78.8985 468.923 73.6404L485.845 51.0774C488.698 47.2734 492.907 44.7147 497.598 43.933L757.828 0.561313C761.707 -0.085207 764.57 4.09944 762.562 7.48093L591.986 294.767H370.104L227.172 62.5016Z" fill="url(#paint4_linear_78_2917)"/>
<path d="M194.448 262.41C194.448 259.857 196.518 257.787 199.071 257.787H217.561C220.114 257.787 222.184 259.857 222.184 262.41V285.522H194.448V262.41Z" fill="url(#paint5_linear_78_2917)"/>
<path d="M231.429 262.41C231.429 259.857 233.498 257.787 236.051 257.787H254.541C257.094 257.787 259.164 259.857 259.164 262.41V285.522H231.429V262.41Z" fill="url(#paint6_linear_78_2917)"/>
<path d="M199.071 248.542C196.518 248.542 194.427 246.468 194.654 243.925C196.043 228.373 204.397 214.174 217.525 205.422C219.517 204.095 222.184 205.522 222.184 207.915V243.92C222.184 246.473 220.114 248.542 217.561 248.542H199.071Z" fill="url(#paint7_linear_78_2917)"/>
<path d="M231.429 207.915C231.429 205.522 234.096 204.095 236.087 205.422C249.215 214.174 257.569 228.373 258.958 243.925C259.185 246.468 257.094 248.542 254.541 248.542H236.051C233.498 248.542 231.429 246.473 231.429 243.92V207.915Z" fill="url(#paint8_linear_78_2917)"/>
<path d="M730.662 243.92C730.662 241.367 732.731 239.297 735.284 239.297H763.019C765.572 239.297 767.642 241.367 767.642 243.92V271.655C767.642 274.208 765.572 276.277 763.019 276.277H735.284C732.731 276.277 730.662 274.208 730.662 271.655V243.92Z" fill="url(#paint9_linear_78_2917)"/>
<path d="M776.887 243.92C776.887 241.367 778.957 239.297 781.51 239.297H809.245C811.798 239.297 813.867 241.367 813.867 243.92V271.655C813.867 274.208 811.798 276.277 809.245 276.277H781.51C778.957 276.277 776.887 274.208 776.887 271.655V243.92Z" fill="url(#paint10_linear_78_2917)"/>
<path d="M735.284 230.052C732.731 230.052 730.643 227.979 730.84 225.433C732.448 204.604 744.853 185.976 763.738 176.534C765.532 175.637 767.642 176.941 767.642 178.947V225.43C767.642 227.982 765.572 230.052 763.019 230.052H735.284Z" fill="url(#paint11_linear_78_2917)"/>
<path d="M776.887 178.947C776.887 176.941 778.998 175.637 780.791 176.534C799.676 185.976 812.081 204.604 813.689 225.433C813.886 227.979 811.798 230.052 809.245 230.052H781.51C778.957 230.052 776.887 227.982 776.887 225.43V178.947Z" fill="url(#paint12_linear_78_2917)"/>
<path fill-rule="evenodd" clip-rule="evenodd" d="M1026.5 313.258C1026.5 303.046 1018.23 294.767 1008.01 294.767H18.7922C8.58043 294.767 0.302124 303.046 0.302124 313.258V424.198C0.302124 434.41 8.58042 442.689 18.7922 442.689L1008.01 442.688C1018.23 442.688 1026.5 434.41 1026.5 424.198V313.258ZM38.6908 354.75C38.6908 352.864 37.5445 351.167 35.7946 350.462L34.6351 349.995C32.8852 349.291 31.7389 347.594 31.7389 345.707V345.5C31.7389 342.985 33.7492 340.932 36.2633 340.879L53.0008 340.523H61.8034C71.1629 340.523 78.4006 343.247 83.5167 348.694C88.6328 354.111 91.1908 361.966 91.1908 372.258C91.1908 379.09 89.9268 385.033 87.3989 390.089C84.8709 395.145 81.2897 399.012 76.6551 401.691C72.0506 404.369 66.6336 405.708 60.404 405.708H36.3615C33.8085 405.708 31.7389 403.639 31.7389 401.086V400.976C31.7389 399.089 32.8852 397.392 34.6351 396.688L35.7946 396.221C37.5445 395.516 38.6908 393.819 38.6908 391.933V354.75ZM60.6749 394.603C65.49 394.603 69.1917 392.933 71.7798 389.593C74.3679 386.222 75.662 380.594 75.662 372.709C75.662 365.186 74.4582 359.799 72.0506 356.549C69.6431 353.268 66.0618 351.628 61.3069 351.628H57.6233C55.0703 351.628 53.0008 353.698 53.0008 356.251V389.981C53.0008 392.534 55.0703 394.603 57.6233 394.603H60.6749ZM119.314 362.146C119.314 362.026 120.036 361.319 121.481 360.025C122.926 358.731 124.596 357.557 126.492 356.504C128.418 355.42 130.314 354.878 132.18 354.878C133.654 354.878 135.039 354.999 136.333 355.24C137.627 355.48 138.635 355.736 139.357 356.007C140.185 356.305 140.732 357.108 140.696 357.987L140.214 369.857C140.114 372.333 138.077 374.289 135.598 374.289C133.359 374.289 131.442 372.684 131.049 370.48L131.008 370.246C130.615 368.041 128.628 366.34 126.559 367.198C126.264 367.32 125.971 367.457 125.679 367.608C124.205 368.361 122.941 369.203 121.887 370.136C120.864 371.039 120.352 371.521 120.352 371.581V392.389C120.352 394.512 121.799 396.362 123.859 396.875L126.455 397.521C128.307 397.981 129.607 399.645 129.607 401.553C129.607 403.848 127.746 405.708 125.451 405.708H103.355C101 405.708 99.0906 403.799 99.0906 401.444C99.0906 399.577 100.305 397.927 102.088 397.373L103.244 397.013C105.177 396.412 106.494 394.623 106.494 392.599V369.342C106.494 367.317 105.177 365.529 103.244 364.928L102.129 364.581C100.322 364.019 99.0906 362.347 99.0906 360.454C99.0906 358.107 100.965 356.189 103.311 356.134L114.336 355.878C116.703 355.823 118.729 357.565 119.029 359.914L119.314 362.146ZM171.95 401.736C172.345 401.43 175.052 402.256 175.186 402.738L175.85 405.126C175.945 405.467 176.262 405.7 176.617 405.688L190.445 405.215C192.718 405.138 194.521 403.273 194.521 400.999C194.521 399.048 193.184 397.352 191.287 396.896L191.045 396.838C189.006 396.348 187.569 394.525 187.569 392.428V373.161C187.569 368.677 186.922 365.111 185.628 362.462C184.334 359.784 182.287 357.858 179.488 356.684C176.69 355.48 172.913 354.878 168.158 354.878C165.509 354.878 162.696 355.149 159.716 355.691C156.767 356.233 154.224 356.804 152.087 357.406C151.872 357.468 151.665 357.527 151.466 357.584C149.478 358.155 148.181 360.007 148.276 362.073L148.543 367.849C148.657 370.316 150.691 372.258 153.161 372.258H153.538C155.6 372.258 157.392 370.845 157.874 368.841L158.132 367.768C158.331 366.939 158.946 366.277 159.761 366.028C160.484 365.788 161.447 365.562 162.65 365.351C163.854 365.141 165.163 365.035 166.578 365.035C171.333 365.005 173.71 367.247 173.71 371.761V372.24C173.71 374.793 171.641 376.863 169.088 376.863H167.21C159.957 376.863 154.435 378.081 150.643 380.519C146.851 382.957 144.955 386.824 144.955 392.12C144.955 396.755 146.219 400.336 148.747 402.864C151.305 405.362 154.841 406.611 159.355 406.611C161.702 406.611 163.99 406.114 166.217 405.121C168.444 404.098 170.355 402.97 171.95 401.736ZM159.761 394.874C158.828 393.911 158.362 392.527 158.362 390.721C158.362 388.645 159.144 387.125 160.709 386.162C162.274 385.199 164.847 384.717 168.429 384.717H169.229C171.704 384.717 173.71 386.723 173.71 389.198C173.71 390.295 173.292 391.341 172.474 392.072C172.288 392.239 172.083 392.42 171.859 392.617C170.866 393.46 169.647 394.287 168.203 395.1C166.758 395.882 165.299 396.274 163.824 396.274C162.079 396.274 160.724 395.807 159.761 394.874ZM200.479 415.865C200.479 413.518 201.202 411.516 202.646 409.861C204.091 408.206 205.701 406.912 207.476 405.979C207.943 405.738 208.349 405.533 208.695 405.364C209.031 405.201 208.999 404.533 208.65 404.399C207.627 403.978 206.694 403.316 205.851 402.413C205.039 401.48 204.632 400.231 204.632 398.666C204.632 397.304 205.463 395.127 207.125 392.135C208.349 389.93 207.738 387.117 206.12 385.182C205.579 384.535 205.053 383.823 204.542 383.047C203.067 380.76 202.33 377.675 202.33 373.793C202.33 367.684 204.377 363.004 208.469 359.754C212.562 356.504 217.904 354.878 224.495 354.878C228.194 354.878 231.505 355.472 234.429 356.659C235.087 356.926 235.789 357.082 236.5 357.066L247.274 356.821C249.488 356.771 251.309 358.551 251.309 360.765C251.309 362.685 249.927 364.326 248.035 364.653L246.132 364.981C244.832 365.205 244.078 366.463 244.538 367.699C245.049 368.993 245.305 370.663 245.305 372.709C245.305 379.12 243.304 383.89 239.301 387.019C235.299 390.119 229.912 391.669 223.141 391.669C221.967 391.669 220.929 391.594 220.026 391.443C219.118 391.262 218.359 391.894 218.305 392.818L218.231 394.107C218.127 395.895 219.549 397.402 221.34 397.402H231.718C237.646 397.402 242.205 398.636 245.396 401.104C248.616 403.571 250.226 407.108 250.226 411.712C250.226 417.009 248.044 421.252 243.68 424.442C239.346 427.662 232.891 429.272 224.314 429.272C216.55 429.272 210.636 428.249 206.573 426.203C202.511 424.186 200.479 420.74 200.479 415.865ZM224.043 364.403C221.335 364.403 219.349 365.126 218.085 366.57C216.821 368.015 216.189 370.212 216.189 373.161C216.189 376.05 216.791 378.322 217.994 379.977C219.198 381.602 221.064 382.415 223.592 382.415C226.421 382.415 228.437 381.678 229.641 380.203C230.845 378.728 231.447 376.381 231.447 373.161C231.447 370.212 230.845 368.015 229.641 366.57C228.437 365.126 226.571 364.403 224.043 364.403ZM219.402 407.559C218.684 407.559 217.979 407.732 217.367 408.106C217.215 408.199 217.048 408.303 216.866 408.417C216.174 408.898 215.497 409.575 214.834 410.448C214.202 411.351 213.886 412.389 213.886 413.563C213.886 415.79 214.789 417.265 216.595 417.987C218.431 418.739 221.38 419.115 225.443 419.115C229.626 419.115 232.635 418.619 234.471 417.626C236.337 416.633 237.27 415.038 237.27 412.841C237.27 410.854 236.548 409.47 235.103 408.688C233.659 407.935 231.296 407.559 228.016 407.559H219.402ZM283.902 401.736C284.297 401.43 287.004 402.256 287.138 402.738L287.802 405.126C287.897 405.467 288.214 405.7 288.569 405.688L302.397 405.215C304.67 405.138 306.472 403.273 306.472 400.999C306.472 399.048 305.135 397.352 303.239 396.896L302.997 396.838C300.958 396.348 299.521 394.525 299.521 392.428V373.161C299.521 368.677 298.874 365.111 297.58 362.462C296.285 359.784 294.239 357.858 291.44 356.684C288.641 355.48 284.865 354.878 280.11 354.878C277.461 354.878 274.647 355.149 271.668 355.691C268.719 356.233 266.176 356.804 264.039 357.406C263.824 357.468 263.617 357.527 263.418 357.584C261.43 358.155 260.133 360.007 260.228 362.073L260.495 367.849C260.609 370.316 262.642 372.258 265.112 372.258H265.49C267.552 372.258 269.344 370.845 269.826 368.841L270.084 367.768C270.283 366.939 270.898 366.277 271.713 366.028C272.435 365.788 273.399 365.562 274.602 365.351C275.806 365.141 277.115 365.035 278.53 365.035C283.285 365.005 285.662 367.247 285.662 371.761V372.24C285.662 374.793 283.592 376.863 281.04 376.863H279.162C271.909 376.863 266.386 378.081 262.595 380.519C258.803 382.957 256.907 386.824 256.907 392.12C256.907 396.755 258.171 400.336 260.699 402.864C263.257 405.362 266.793 406.611 271.307 406.611C273.654 406.611 275.942 406.114 278.169 405.121C280.396 404.098 282.307 402.97 283.902 401.736ZM271.713 394.874C270.78 393.911 270.314 392.527 270.314 390.721C270.314 388.645 271.096 387.125 272.661 386.162C274.226 385.199 276.799 384.717 280.38 384.717H281.181C283.656 384.717 285.662 386.723 285.662 389.198C285.662 390.295 285.243 391.341 284.426 392.072C284.24 392.239 284.035 392.42 283.811 392.617C282.818 393.46 281.599 394.287 280.155 395.1C278.71 395.882 277.251 396.274 275.776 396.274C274.03 396.274 272.676 395.807 271.713 394.874ZM332.203 362.146C332.203 362.026 333.166 361.334 335.092 360.07C337.049 358.806 339.276 357.662 341.773 356.639C344.271 355.586 346.754 355.059 349.222 355.059C353.646 355.059 357.092 356.519 359.559 359.438C362.027 362.357 363.261 366.375 363.261 371.491V392.736C363.261 394.694 364.495 396.44 366.34 397.093L366.872 397.282C368.604 397.895 369.761 399.533 369.761 401.37C369.761 403.766 367.819 405.708 365.424 405.708H348.8C346.315 405.708 344.301 403.694 344.301 401.21V401.103C344.301 399.4 345.299 397.855 346.852 397.154C348.404 396.453 349.402 394.908 349.402 393.204V374.019C349.402 371.852 348.831 370.076 347.687 368.692C346.543 367.307 345.024 366.615 343.128 366.615C341.412 366.615 339.817 367.007 338.343 367.789C336.898 368.541 335.679 369.384 334.686 370.317C333.723 371.22 333.242 371.731 333.242 371.852V393.225C333.242 394.917 334.23 396.453 335.77 397.154C337.309 397.855 338.298 399.391 338.298 401.083V401.203C338.298 403.691 336.281 405.708 333.793 405.708H316.244C313.889 405.708 311.98 403.799 311.98 401.444C311.98 399.577 313.195 397.927 314.978 397.373L316.133 397.013C318.066 396.412 319.383 394.623 319.383 392.599V369.342C319.383 367.317 318.066 365.529 316.133 364.928L315.017 364.581C313.211 364.019 311.98 362.347 311.98 360.455C311.98 358.107 313.854 356.189 316.201 356.135L327.288 355.88C329.705 355.824 331.756 357.639 331.995 360.045L332.203 362.146ZM402.715 401.736C403.111 401.43 405.817 402.256 405.951 402.738L406.616 405.126C406.711 405.467 407.027 405.7 407.382 405.688L421.211 405.215C423.484 405.138 425.286 403.273 425.286 400.999C425.286 399.048 423.949 397.352 422.052 396.896L421.81 396.838C419.771 396.348 418.334 394.525 418.334 392.428V373.161C418.334 368.677 417.687 365.111 416.393 362.462C415.099 359.784 413.052 357.858 410.254 356.684C407.455 355.48 403.678 354.878 398.923 354.878C396.275 354.878 393.461 355.149 390.482 355.691C387.532 356.233 384.989 356.804 382.853 357.406C382.637 357.468 382.43 357.527 382.231 357.584C380.243 358.155 378.946 360.007 379.041 362.073L379.308 367.849C379.422 370.316 381.456 372.258 383.926 372.258H384.304C386.365 372.258 388.158 370.845 388.639 368.841L388.897 367.768C389.096 366.939 389.711 366.277 390.527 366.028C391.249 365.788 392.212 365.562 393.416 365.351C394.62 365.141 395.929 365.035 397.343 365.035C402.098 365.005 404.476 367.247 404.476 371.761V372.24C404.476 374.793 402.406 376.863 399.853 376.863H397.975C390.722 376.863 385.2 378.081 381.408 380.519C377.616 382.957 375.72 386.824 375.72 392.12C375.72 396.755 376.984 400.336 379.512 402.864C382.07 405.362 385.606 406.611 390.12 406.611C392.468 406.611 394.755 406.114 396.982 405.121C399.209 404.098 401.12 402.97 402.715 401.736ZM390.527 394.874C389.594 393.911 389.127 392.527 389.127 390.721C389.127 388.645 389.91 387.125 391.475 386.162C393.04 385.199 395.613 384.717 399.194 384.717H399.995C402.469 384.717 404.476 386.723 404.476 389.198C404.476 390.295 404.057 391.341 403.239 392.073C403.053 392.239 402.849 392.42 402.625 392.617C401.632 393.46 400.413 394.287 398.968 395.1C397.524 395.882 396.064 396.274 394.589 396.274C392.844 396.274 391.49 395.807 390.527 394.874ZM518.007 401.086C518.007 403.639 515.938 405.708 513.385 405.708H493.182C490.638 405.708 488.575 403.645 488.575 401.101V400.954C488.575 399.095 489.744 397.436 491.495 396.811L491.683 396.743C493.823 395.979 494.965 393.651 494.259 391.491C493.696 389.766 492.087 388.599 490.273 388.599H475.735C473.964 388.599 472.388 389.723 471.811 391.397C471.07 393.548 472.199 395.895 474.342 396.659L474.69 396.783C476.492 397.425 477.696 399.155 477.696 401.068C477.696 403.612 475.633 405.708 473.09 405.708H454.375C451.822 405.708 449.753 403.613 449.753 401.06C449.753 399.14 450.939 397.403 452.733 396.721L454.566 396.024C455.811 395.552 456.791 394.565 457.256 393.318L475.738 343.744C476.402 341.964 478.086 340.771 479.985 340.737L488.341 340.584C490.317 340.548 492.097 341.771 492.771 343.629L510.797 393.324C511.249 394.568 512.211 395.559 513.442 396.046L515.086 396.697C516.849 397.395 518.007 399.099 518.007 400.995V401.086ZM487.621 370.396C486.274 366.124 480.247 366.074 478.828 370.322L478.059 372.626C477.059 375.62 479.287 378.713 482.443 378.713H483.94C487.064 378.713 489.288 375.679 488.348 372.7L487.621 370.396ZM543.016 359.167C542.788 359.338 540.434 358.461 540.388 358.179L540.048 356.126C540.016 355.928 539.842 355.785 539.642 355.789L524.531 356.136C522.184 356.19 520.31 358.108 520.31 360.455C520.31 362.347 521.54 364.019 523.347 364.581L524.463 364.928C526.396 365.529 527.713 367.317 527.713 369.342V413.985C527.713 416.036 526.361 417.842 524.393 418.42L523.531 418.674C521.728 419.203 520.49 420.857 520.49 422.736C520.49 425.074 522.386 426.97 524.724 426.97H546.233C548.52 426.97 550.374 425.116 550.374 422.829C550.374 420.915 549.063 419.251 547.203 418.802L545.111 418.298C543.035 417.798 541.571 415.94 541.571 413.804V411.499C541.571 408.533 544.335 406.356 547.296 406.543C548.008 406.588 548.718 406.611 549.426 406.611C557.371 406.611 563.405 404.249 567.528 399.524C571.681 394.769 573.758 388.043 573.758 379.345C573.758 371.701 572.117 365.712 568.837 361.379C565.587 357.045 560.817 354.878 554.527 354.878C552.3 354.878 550.178 355.33 548.162 356.233C546.176 357.105 544.461 358.083 543.016 359.167ZM548.794 396.003C547.238 396.003 545.782 395.849 544.425 395.541C542.641 395.136 541.571 393.424 541.571 391.595V371.039C541.571 370.919 541.918 370.422 542.61 369.55C543.332 368.647 544.325 367.819 545.589 367.067C546.853 366.314 548.373 365.938 550.148 365.938C553.429 365.938 555.791 367.232 557.236 369.82C558.68 372.409 559.402 376.14 559.402 381.016C559.402 385.951 558.59 389.683 556.965 392.211C555.34 394.739 552.616 396.003 548.794 396.003ZM611.347 402.738C611.213 402.256 608.506 401.43 608.111 401.736C606.516 402.97 604.605 404.098 602.378 405.121C600.151 406.114 597.863 406.611 595.516 406.611C591.002 406.611 587.466 405.362 584.908 402.864C582.38 400.336 581.116 396.755 581.116 392.12C581.116 386.824 583.012 382.957 586.804 380.519C590.596 378.081 596.118 376.863 603.371 376.863H605.249C607.802 376.863 609.871 374.793 609.871 372.24V371.761C609.871 367.247 607.494 365.005 602.739 365.035C601.324 365.035 600.015 365.141 598.811 365.351C597.608 365.562 596.645 365.788 595.922 366.028C595.107 366.277 594.492 366.939 594.293 367.768L594.035 368.841C593.553 370.845 591.761 372.258 589.699 372.258H589.322C586.852 372.258 584.818 370.316 584.704 367.849L584.437 362.073C584.342 360.007 585.639 358.155 587.627 357.584C587.826 357.527 588.033 357.468 588.248 357.406C590.385 356.804 592.928 356.233 595.877 355.691C598.856 355.149 601.67 354.878 604.319 354.878C609.074 354.878 612.85 355.48 615.649 356.684C618.448 357.858 620.494 359.784 621.789 362.462C623.083 365.111 623.73 368.677 623.73 373.161V392.428C623.73 394.525 625.167 396.348 627.206 396.838L627.448 396.896C629.345 397.352 630.682 399.048 630.682 400.999C630.682 403.273 628.879 405.138 626.606 405.215L612.778 405.688C612.423 405.7 612.106 405.467 612.011 405.126L611.347 402.738ZM594.523 390.721C594.523 392.527 594.989 393.911 595.922 394.874C596.885 395.807 598.24 396.274 599.985 396.274C601.46 396.274 602.919 395.882 604.364 395.1C605.808 394.287 607.027 393.46 608.02 392.617C608.244 392.42 608.449 392.239 608.635 392.072C609.453 391.341 609.871 390.295 609.871 389.198C609.871 386.723 607.865 384.717 605.39 384.717H604.59C601.008 384.717 598.435 385.199 596.87 386.162C595.305 387.125 594.523 388.645 594.523 390.721ZM658.579 360.025C657.135 361.319 656.412 362.026 656.412 362.146L656.127 359.914C655.828 357.565 653.802 355.823 651.435 355.878L640.409 356.134C638.063 356.189 636.189 358.107 636.189 360.454C636.189 362.347 637.42 364.019 639.227 364.581L640.342 364.928C642.275 365.529 643.592 367.317 643.592 369.342V392.599C643.592 394.623 642.275 396.412 640.342 397.013L639.187 397.373C637.404 397.927 636.189 399.577 636.189 401.444C636.189 403.799 638.098 405.708 640.453 405.708H662.55C664.844 405.708 666.705 403.848 666.705 401.553C666.705 399.645 665.405 397.981 663.553 397.521L660.957 396.875C658.897 396.362 657.451 394.512 657.451 392.389V371.581C657.451 371.521 657.962 371.039 658.985 370.136C660.039 369.203 661.303 368.361 662.777 367.608C663.069 367.457 663.362 367.32 663.657 367.198C665.726 366.34 667.713 368.041 668.106 370.246L668.148 370.48C668.54 372.684 670.457 374.289 672.696 374.289C675.175 374.289 677.212 372.333 677.313 369.857L677.795 357.987C677.83 357.108 677.283 356.305 676.455 356.007C675.733 355.736 674.725 355.48 673.431 355.24C672.137 354.999 670.753 354.878 669.278 354.878C667.412 354.878 665.516 355.42 663.59 356.504C661.694 357.557 660.024 358.731 658.579 360.025ZM702.006 406.611C697.01 406.611 693.474 405.061 691.397 401.961C689.351 398.862 688.328 394.408 688.328 388.599V371.626C688.328 369.258 686.408 367.338 684.039 367.338C681.671 367.338 679.751 365.418 679.751 363.049V362.387C679.751 360.077 681.457 358.121 683.747 357.808L684.332 357.727C686.621 357.414 688.328 355.458 688.328 353.148V348.273C688.328 346.035 689.932 344.118 692.135 343.723L696.749 342.897C699.583 342.389 702.186 344.568 702.186 347.447V352.558C702.186 355.111 704.256 357.181 706.809 357.181H710.519C713.072 357.181 715.142 359.25 715.142 361.803V362.715C715.142 365.268 713.072 367.338 710.519 367.338H706.809C704.256 367.338 702.186 369.407 702.186 371.96V387.697C702.186 390.766 702.517 392.918 703.179 394.152C703.872 395.386 705.181 396.003 707.107 396.003C708.22 396.003 709.514 395.762 710.989 395.28C712.9 394.617 715.134 395.407 715.991 397.24L716.264 397.823C717.108 399.626 716.578 401.802 714.871 402.826C710.623 405.374 706.334 406.636 702.006 406.611ZM783.035 401.183C783.035 403.682 785.061 405.708 787.56 405.708H803.73C806.137 405.708 808.089 403.756 808.089 401.349C808.089 399.52 806.948 397.886 805.231 397.256L804.845 397.115C803.024 396.447 801.814 394.714 801.814 392.775V371.491C801.814 366.194 800.626 362.101 798.248 359.212C795.901 356.323 792.35 354.878 787.595 354.878C784.074 354.878 780.823 355.781 777.844 357.587C777.269 357.933 776.717 358.279 776.188 358.623C773.452 360.404 769.396 359.42 766.792 357.451C764.523 355.736 761.617 354.878 758.072 354.878C755.694 354.878 753.302 355.435 750.894 356.549C748.487 357.632 746.38 358.836 744.575 360.16C742.799 361.484 741.911 362.206 741.911 362.327L741.692 360.059C741.459 357.648 739.405 355.825 736.983 355.882L726.21 356.133C723.846 356.189 721.958 358.121 721.958 360.485C721.958 362.365 723.165 364.033 724.951 364.621L725.778 364.893C727.674 365.517 728.955 367.287 728.955 369.284V392.644C728.955 394.647 727.666 396.422 725.761 397.04L724.831 397.342C723.064 397.916 721.868 399.563 721.868 401.42C721.868 403.788 723.788 405.708 726.156 405.708H743.203C745.706 405.708 747.734 403.679 747.734 401.177V401.001C747.734 399.355 746.785 397.857 745.297 397.154C743.809 396.451 742.859 394.953 742.859 393.307V371.22C742.859 371.16 743.356 370.708 744.349 369.866C745.372 368.993 746.651 368.21 748.186 367.518C749.751 366.796 751.421 366.435 753.197 366.435C755.093 366.435 756.447 367.037 757.259 368.24C758.072 369.444 758.478 371.37 758.478 374.019V393.327C758.478 394.962 757.539 396.451 756.063 397.154C754.588 397.857 753.648 399.346 753.648 400.98V401.169C753.648 403.676 755.68 405.708 758.187 405.708H772.576C775.087 405.708 777.122 403.673 777.122 401.162V400.96C777.122 399.337 776.192 397.857 774.729 397.154C773.267 396.45 772.337 394.971 772.337 393.348V371.22C772.337 371.099 772.833 370.633 773.826 369.82C774.85 368.978 776.114 368.21 777.618 367.518C779.153 366.796 780.808 366.435 782.584 366.435C784.51 366.435 785.879 367.052 786.692 368.286C787.535 369.519 787.956 371.43 787.956 374.019V393.286C787.956 394.944 786.997 396.451 785.496 397.154C783.994 397.856 783.035 399.364 783.035 401.021V401.183ZM832.969 383.764C830.317 383.791 828.119 386.098 829.038 388.586C829.599 390.104 830.395 391.403 831.428 392.482C833.444 394.528 836.062 395.551 839.282 395.551C841.569 395.551 843.857 395.235 846.144 394.603C848.461 393.941 850.372 393.279 851.877 392.617C853.477 391.895 855.508 392.52 856.315 394.079L858.266 397.847C858.606 398.504 858.52 399.125 857.916 399.552C857.375 399.933 856.58 400.465 855.533 401.149C853.397 402.533 850.763 403.797 847.633 404.941C844.534 406.054 841.223 406.611 837.702 406.611C829.878 406.611 823.919 404.444 819.826 400.111C815.733 395.777 813.687 389.638 813.687 381.693C813.687 376.336 814.665 371.641 816.621 367.608C818.607 363.546 821.451 360.416 825.153 358.219C828.854 355.992 833.248 354.878 838.334 354.878C845.106 354.878 850.297 356.82 853.908 360.702C857.52 364.584 859.325 369.881 859.325 376.592C859.325 378.066 859.25 379.496 859.099 380.88C858.935 382.397 857.672 383.51 856.146 383.526L832.969 383.764ZM837.431 365.938C834.903 365.938 832.842 366.796 831.247 368.511C830.765 369.021 830.338 369.579 829.966 370.188C828.499 372.585 830.779 375.192 833.589 375.192H840.393C842.946 375.192 845.177 373.046 844.297 370.65C844.007 369.86 843.63 369.147 843.164 368.511C841.931 366.796 840.019 365.938 837.431 365.938ZM888.983 360.07C887.057 361.334 886.094 362.026 886.094 362.146L885.886 360.045C885.647 357.639 883.596 355.824 881.179 355.88L870.092 356.135C867.745 356.189 865.871 358.107 865.871 360.455C865.871 362.347 867.102 364.019 868.908 364.581L870.024 364.928C871.957 365.529 873.274 367.317 873.274 369.342V392.599C873.274 394.623 871.957 396.412 870.024 397.013L868.869 397.373C867.086 397.927 865.871 399.577 865.871 401.444C865.871 403.799 867.78 405.708 870.135 405.708H887.684C890.172 405.708 892.188 403.691 892.188 401.203V401.083C892.188 399.391 891.2 397.855 889.661 397.154C888.121 396.453 887.133 394.917 887.133 393.225V371.852C887.133 371.731 887.614 371.22 888.577 370.317C889.57 369.384 890.789 368.541 892.234 367.789C893.708 367.007 895.303 366.615 897.019 366.615C898.915 366.615 900.434 367.307 901.578 368.692C902.722 370.076 903.293 371.852 903.293 374.019V393.204C903.293 394.908 902.295 396.453 900.743 397.154C899.19 397.855 898.192 399.4 898.192 401.103V401.21C898.192 403.694 900.206 405.708 902.691 405.708H919.315C921.71 405.708 923.652 403.766 923.652 401.37C923.652 399.533 922.495 397.895 920.763 397.282L920.231 397.093C918.386 396.44 917.152 394.694 917.152 392.736V371.491C917.152 366.375 915.918 362.357 913.45 359.438C910.983 356.519 907.537 355.059 903.113 355.059C900.645 355.059 898.162 355.586 895.664 356.639C893.167 357.662 890.94 358.806 888.983 360.07ZM949.564 406.611C944.568 406.611 941.032 405.061 938.955 401.961C936.909 398.862 935.886 394.408 935.886 388.599V371.626C935.886 369.258 933.966 367.338 931.597 367.338C929.229 367.338 927.309 365.418 927.309 363.049V362.387C927.309 360.077 929.015 358.121 931.305 357.808L931.89 357.727C934.179 357.414 935.886 355.458 935.886 353.148V348.273C935.886 346.035 937.49 344.118 939.693 343.723L944.307 342.897C947.141 342.389 949.744 344.568 949.744 347.447V352.558C949.744 355.111 951.814 357.181 954.367 357.181H958.078C960.631 357.181 962.7 359.25 962.7 361.803V362.715C962.7 365.268 960.631 367.338 958.078 367.338H954.367C951.814 367.338 949.744 369.407 949.744 371.96V387.697C949.744 390.766 950.075 392.918 950.738 394.152C951.43 395.386 952.739 396.003 954.665 396.003C955.778 396.003 957.072 395.762 958.547 395.28C960.458 394.617 962.692 395.407 963.55 397.24L963.823 397.823C964.666 399.626 964.136 401.802 962.429 402.826C958.181 405.374 953.892 406.636 949.564 406.611ZM981.208 396.048C979.583 395.777 978.771 395.611 978.771 395.551L978.496 393.405C978.214 391.2 976.338 389.547 974.115 389.547C971.675 389.547 969.697 391.525 969.697 393.965V401.434C969.697 403.321 970.912 404.913 972.767 405.257C974.422 405.558 976.514 405.859 979.041 406.16C981.569 406.461 984.128 406.611 986.716 406.611C993.186 406.611 998.347 405.151 1002.2 402.232C1006.05 399.313 1007.98 395.235 1007.98 389.999C1007.98 387.05 1007.21 384.657 1005.68 382.821C1004.17 380.955 1002.35 379.541 1000.21 378.578C998.106 377.615 995.413 376.607 992.133 375.553C989.063 374.651 986.821 373.793 985.406 372.98C983.992 372.168 983.285 371.084 983.285 369.73C983.285 368.195 983.827 367.037 984.91 366.254C986.023 365.442 987.603 365.035 989.65 365.035C991.185 365.035 992.629 365.171 993.983 365.442C994.673 365.577 995.191 365.685 995.537 365.768C995.896 365.854 996.104 366.119 996.192 366.478L996.583 368.085C997.071 370.084 998.862 371.491 1000.92 371.491C1003.34 371.491 1005.32 369.562 1005.38 367.143L1005.54 360.992C1005.59 359.014 1004.3 357.27 1002.38 356.774C1000.66 356.293 998.528 355.857 995.97 355.465C993.442 355.074 990.944 354.878 988.476 354.878C983.029 354.878 978.485 356.157 974.843 358.715C971.232 361.274 969.426 365.261 969.426 370.678C969.426 373.688 970.194 376.17 971.729 378.126C973.263 380.053 975.069 381.542 977.146 382.596C979.252 383.649 981.946 384.732 985.226 385.846C988.296 386.869 990.538 387.802 991.952 388.645C993.366 389.487 994.074 390.586 994.074 391.94C994.104 394.949 991.591 396.454 986.535 396.454C984.609 396.454 982.833 396.319 981.208 396.048Z" fill="url(#paint13_linear_78_2917)"/>
<defs>
<linearGradient id="paint0_linear_78_2917" x1="513.403" y1="-1.07633" x2="513.403" y2="442.687" gradientUnits="userSpaceOnUse">
<stop stop-color="#0EA5E9"/>
<stop offset="1" stop-color="#14B8A6"/>
</linearGradient>
<linearGradient id="paint1_linear_78_2917" x1="513.403" y1="-1.07633" x2="513.403" y2="442.687" gradientUnits="userSpaceOnUse">
<stop stop-color="#0EA5E9"/>
<stop offset="1" stop-color="#14B8A6"/>
</linearGradient>
<linearGradient id="paint2_linear_78_2917" x1="513.403" y1="-1.07633" x2="513.403" y2="442.687" gradientUnits="userSpaceOnUse">
<stop stop-color="#0EA5E9"/>
<stop offset="1" stop-color="#14B8A6"/>
</linearGradient>
<linearGradient id="paint3_linear_78_2917" x1="513.403" y1="-1.07633" x2="513.403" y2="442.687" gradientUnits="userSpaceOnUse">
<stop stop-color="#0EA5E9"/>
<stop offset="1" stop-color="#14B8A6"/>
</linearGradient>
<linearGradient id="paint4_linear_78_2917" x1="513.403" y1="-1.07633" x2="513.403" y2="442.687" gradientUnits="userSpaceOnUse">
<stop stop-color="#0EA5E9"/>
<stop offset="1" stop-color="#14B8A6"/>
</linearGradient>
<linearGradient id="paint5_linear_78_2917" x1="513.403" y1="-1.07633" x2="513.403" y2="442.687" gradientUnits="userSpaceOnUse">
<stop stop-color="#0EA5E9"/>
<stop offset="1" stop-color="#14B8A6"/>
</linearGradient>
<linearGradient id="paint6_linear_78_2917" x1="513.403" y1="-1.07633" x2="513.403" y2="442.687" gradientUnits="userSpaceOnUse">
<stop stop-color="#0EA5E9"/>
<stop offset="1" stop-color="#14B8A6"/>
</linearGradient>
<linearGradient id="paint7_linear_78_2917" x1="513.403" y1="-1.07633" x2="513.403" y2="442.687" gradientUnits="userSpaceOnUse">
<stop stop-color="#0EA5E9"/>
<stop offset="1" stop-color="#14B8A6"/>
</linearGradient>
<linearGradient id="paint8_linear_78_2917" x1="513.403" y1="-1.07633" x2="513.403" y2="442.687" gradientUnits="userSpaceOnUse">
<stop stop-color="#0EA5E9"/>
<stop offset="1" stop-color="#14B8A6"/>
</linearGradient>
<linearGradient id="paint9_linear_78_2917" x1="513.403" y1="-1.07633" x2="513.403" y2="442.687" gradientUnits="userSpaceOnUse">
<stop stop-color="#0EA5E9"/>
<stop offset="1" stop-color="#14B8A6"/>
</linearGradient>
<linearGradient id="paint10_linear_78_2917" x1="513.403" y1="-1.07633" x2="513.403" y2="442.687" gradientUnits="userSpaceOnUse">
<stop stop-color="#0EA5E9"/>
<stop offset="1" stop-color="#14B8A6"/>
</linearGradient>
<linearGradient id="paint11_linear_78_2917" x1="513.403" y1="-1.07633" x2="513.403" y2="442.687" gradientUnits="userSpaceOnUse">
<stop stop-color="#0EA5E9"/>
<stop offset="1" stop-color="#14B8A6"/>
</linearGradient>
<linearGradient id="paint12_linear_78_2917" x1="513.403" y1="-1.07633" x2="513.403" y2="442.687" gradientUnits="userSpaceOnUse">
<stop stop-color="#0EA5E9"/>
<stop offset="1" stop-color="#14B8A6"/>
</linearGradient>
<linearGradient id="paint13_linear_78_2917" x1="513.403" y1="-1.07633" x2="513.403" y2="442.687" gradientUnits="userSpaceOnUse">
<stop stop-color="#0EA5E9"/>
<stop offset="1" stop-color="#14B8A6"/>
</linearGradient>
</defs>
</svg>